<svg width="61" height="110" viewBox="0 0 61 110" fill="none" xmlns="http://www.w3.org/2000/svg">
<path d="M21.918 95.7432H11.5433C10.3512 95.7432 9.38477 94.7768 9.38477 93.5846V60.4567C9.38477 59.6769 9.80532 58.9577 10.4849 58.5754L29.799 47.7092C30.4561 47.3395 31.2586 47.3395 31.9158 47.7092L41.5937 53.1541L44.6808 54.9288C45.2608 55.2623 45.6534 55.8458 45.7438 56.5087L46.0715 58.9138C46.1327 59.3624 46.3334 59.7805 46.6452 60.1088L48.3708 61.9257C48.7059 62.2785 48.9119 62.7341 48.9556 63.2186L49.1817 65.73C49.2246 66.2053 49.4237 66.6531 49.7481 67.0032L50.7177 68.05C50.9665 68.3186 51.1429 68.6461 51.2303 69.0017L51.7135 70.9678L52.5747 74.9246C52.6168 75.1182 52.6321 75.3168 52.6201 75.5146L52.33 80.2842V93.5846C52.33 94.7768 51.3635 95.7432 50.1714 95.7432H39.7967C38.6046 95.7432 37.6382 94.7768 37.6382 93.5846V77.976C37.6382 77.3603 37.3752 76.7738 36.9154 76.3642L32.2931 72.2468C31.4748 71.5178 30.24 71.5178 29.4216 72.2468L24.7993 76.3642C24.3395 76.7738 24.0765 77.3603 24.0765 77.976V93.5846C24.0765 94.7768 23.1101 95.7432 21.918 95.7432Z" fill="#DB0000"/>
<path d="M16.8847 37.5458V50.4987C16.8847 51.3221 17.7697 51.8423 18.4891 51.4417L30.3322 44.8468C30.6587 44.665 31.0559 44.665 31.3824 44.8468L42.5713 51.0774C43.4089 51.5438 44.3934 50.7682 44.1361 49.8448L43.622 47.9995C43.5331 47.6805 43.3027 47.42 42.997 47.2927L41.5176 46.6772C41.398 46.6274 41.2884 46.5565 41.1939 46.4679L39.8853 45.2407C39.695 45.0622 39.5758 44.8208 39.5498 44.5612L39.3493 42.5632C39.3387 42.4579 39.3127 42.3548 39.2721 42.2571L38.2206 39.7248C38.1421 39.5358 38.119 39.3284 38.1539 39.1268L38.5615 36.771C38.5959 36.572 38.5738 36.3674 38.4977 36.1803L37.9942 34.9427C37.897 34.7038 37.8886 34.4381 37.9704 34.1936L38.4874 32.648C38.5692 32.4035 38.5607 32.1377 38.4636 31.8989L37.8983 30.5094C37.862 30.4202 37.8139 30.3363 37.7554 30.2599L36.5284 28.6577C36.414 28.5084 36.3407 28.3318 36.3156 28.1455L35.8686 24.8249C35.8189 24.4563 35.583 24.1392 35.2442 23.9857L34.3657 23.5878C34.1877 23.5071 34.0348 23.3796 33.9236 23.2189L33.258 22.2572C33.1331 22.0767 33.0662 21.8625 33.0662 21.643V19.9436C33.0662 19.6428 32.9407 19.3557 32.7199 19.1514L31.7051 18.2124C31.6537 18.1648 31.6071 18.1124 31.5659 18.0558L29.1548 14.7474C28.7942 14.2526 28.917 13.5571 29.4254 13.2158L30.0962 12.7653C30.5056 12.4903 30.5921 11.9239 30.2833 11.5393C30.0226 11.2145 29.5637 11.1292 29.2037 11.3385L28.2122 11.9148C27.7313 12.1943 27.1167 12.0626 26.7927 11.6105L26.2571 10.8633C26.0114 10.5206 25.5447 10.4222 25.1816 10.6366C24.7775 10.8752 24.6583 11.4052 24.9213 11.7938L25.2964 12.348C25.6399 12.8555 25.4923 13.5469 24.9716 13.87L24.0574 14.4372C23.6047 14.7181 23.5023 15.333 23.8396 15.7454C24.1215 16.0903 24.6163 16.1709 24.9932 15.9333L26.0065 15.2945C26.483 14.9941 27.1103 15.1106 27.4471 15.562L29.3245 18.0779C29.6214 18.4757 29.6086 19.0247 29.2937 19.4083L19.0578 31.8746C18.8528 32.1243 18.5468 32.269 18.2237 32.269H15.4982C14.9022 32.269 14.4189 32.7522 14.4189 33.3483V35.3872C14.4189 35.9833 14.9022 36.4665 15.4982 36.4665H15.8054C16.4015 36.4665 16.8847 36.9497 16.8847 37.5458Z" fill="#DB0000"/>
<rect x="5.8916" y="97.1763" width="49.9315" height="5.32365" rx="2.15856" fill="#DB0000"/>
<rect x="0.857422" y="103.933" width="60" height="5.32365" rx="2.15856" fill="#DB0000"/>
<path d="M34.9336 21.2047V19.0035C43.1939 19.2902 46.4918 6.05274 50.8069 0.166016C49.711 1.75287 47.9064 7.73173 51.6872 21.2047C55.4681 34.6776 45.7195 38.1692 40.0174 38.2203L40.4815 35.7423L39.8137 34.0019L40.5329 31.596L39.6083 29.3949L38.2213 27.6033L37.6048 23.3546L35.8583 22.5356L34.9336 21.2047Z" fill="#DB0000"/>
<path d="M41.124 41.392L40.3506 39.834C55.7102 38.9637 55.522 27.254 53.3645 21.4185C66.207 35.4954 51.6206 46.0447 44.7713 45.9765L42.7701 45.3238L41.3809 43.9515L41.124 41.392Z" fill="#DB0000"/>
</svg>
