<svg width="490" height="276" viewBox="0 0 490 276" fill="none" xmlns="http://www.w3.org/2000/svg">
<path d="M485.155 127.512L476.537 122.722L478.448 110.277L484.193 109.315L488.982 103.57V96.8696L485.155 93.9971L482.282 88.2454L478.448 92.0798L468.875 91.1179L461.213 86.3348L455.467 87.2901L449.716 84.4175H441.098L430.563 81.545L426.736 85.3728L423.863 80.5831L415.245 74.838L408.538 62.3928H403.749L393.214 70.0551L387.469 68.1379L380.769 70.0551L372.144 66.2206L366.399 71.9657L352.992 59.5205L350.12 50.8962V44.1959L344.375 43.234L343.419 37.4889L337.668 32.6991L321.388 34.6164L312.77 25.0435L316.598 19.2918L309.898 14.5087L306.063 2.05686H299.363L291.701 5.88466H276.376L262.014 1.10156L257.224 4.92939L258.179 10.6744L251.479 11.6364L245.734 10.6744L232.327 13.5469L223.709 14.5089L219.875 24.0817L218.92 33.6613L213.174 34.6165L207.423 29.8268L198.805 32.6993L194.015 29.8268H188.27L182.525 35.5785L177.736 34.6165L176.78 29.8268L168.163 28.8715L158.583 33.6613L154.755 31.744L146.131 30.7888L143.259 32.6993H139.431L134.641 28.8715L124.106 32.6993L123.151 29.8268L115.489 25.999L98.2471 24.0818L91.5468 20.2539H87.7123L81.9672 25.0437H72.3944L51.3255 27.9162L46.5357 30.7888L36.9562 25.999L32.1731 26.9543L31.2111 30.7888L32.1731 43.234L36.0009 47.0684L38.8734 54.7307L46.5357 58.5585L43.6632 61.431L44.6184 66.2208L46.5357 69.0933L44.6184 76.7556L39.8287 77.7109L36.0009 81.5453L33.1284 90.1629L14.9307 108.361L15.886 115.061V123.685L10.141 122.723L4.39594 135.175L2.47869 143.793L1.52344 144.754L8.23042 150.5L15.886 155.289L17.8033 160.072H23.5483L27.3828 156.245H33.1278L44.6179 161.99H52.2802L60.8978 165.824L62.815 169.652L69.522 172.524L79.0949 169.652H84.8399L89.6297 163.907L109.744 161.034L116.445 157.2L123.152 156.245L122.19 149.538L123.152 146.665L122.19 139.003L126.98 140.92L127.941 139.003L133.686 141.882L135.597 139.965H142.304L144.221 137.092L149.004 143.793H156.667L165.291 151.455L174.864 152.41L176.781 148.582H179.654L188.271 157.2L195.933 161.034L197.851 170.607V176.352L204.551 180.187L205.513 183.059L212.213 188.804L220.831 193.594L221.793 198.384L220.831 202.212L224.665 207.001L223.71 209.874H214.13L210.296 207.001L201.678 208.919H196.889L195.933 218.491V225.198H193.061L187.316 234.771V239.561L182.526 237.65L177.736 240.523L182.526 248.179L190.188 250.096H201.678L206.468 246.268H215.086L220.831 249.141L221.793 245.306L218.92 241.478L219.876 238.606V234.771L221.793 237.65H226.582L237.117 226.154L235.2 222.326H239.028L244.773 215.619V208.919L248.607 206.046L256.27 205.084L262.015 198.384L264.887 201.256V203.174H269.677L272.55 199.339L275.422 196.467L277.339 199.339L281.167 201.256L285.002 203.174L294.574 201.256L287.874 204.129L284.04 206.046L279.25 205.084L268.715 206.046H262.015L264.887 208.919H275.422L284.04 211.791L283.084 213.708L279.25 215.619L284.04 219.453H287.874L293.619 222.326L299.364 219.453L307.027 218.491L313.727 220.409L317.561 223.281L320.434 219.453L323.306 220.409L324.262 227.116L328.096 230.943L325.224 231.899L316.599 233.816L306.065 239.561L300.32 248.179L305.109 250.096L308.944 246.268L315.644 249.141H319.479L328.096 255.841L329.051 259.675L325.224 269.248L323.306 271.165L329.051 275H339.586L350.121 271.165L363.528 261.593L373.108 262.548L377.891 255.841L384.598 252.013L397.05 253.93L406.622 252.968L410.457 249.141L407.584 244.351L410.457 242.434L412.368 238.606H404.712L395.132 239.561L393.215 245.306L387.47 241.478H384.598L379.808 246.268L375.98 245.306L361.611 230.944L359.7 224.237L354.911 218.492L352.993 219.454L355.866 226.154L365.445 237.651L375.98 246.268L373.108 248.179L366.401 246.268L362.573 242.434L361.611 236.689L357.783 234.771L354.911 237.651L355.866 233.816H352.993L350.121 235.733V232.861L352.993 229.988L351.076 227.116L347.248 229.026L343.42 226.154L340.541 222.326L330.968 223.281L327.134 220.409L328.096 218.492L334.796 219.453L337.669 216.581L342.458 219.453H348.204L349.165 215.619H354.911L363.528 207.001L364.483 204.129L368.318 206.046L369.273 207.957L363.528 213.708L360.656 215.619L362.573 217.536L365.445 215.619L372.146 207.957L373.108 204.129L370.235 200.294L368.318 197.422H371.19L375.018 203.174H378.853L384.598 200.294L392.26 201.256L397.05 198.384L403.75 197.422L405.667 198.384L412.368 192.639L415.247 187.849H421.947L423.864 183.059L427.692 180.187L435.355 181.142L443.017 178.27H445.889L446.845 181.142L451.634 180.187L453.552 166.78L457.379 165.824L464.086 156.245L478.449 155.29L483.239 152.41L482.283 145.71L486.111 135.175L485.156 127.513" stroke="#5A5A5A" stroke-width="1.71014" stroke-linejoin="round"/>
</svg>
