<svg width="24" height="24" viewBox="0 0 24 24" fill="none" xmlns="http://www.w3.org/2000/svg">
<g clip-path="url(#clip0_1_419)">
<path d="M13.192 9H19.808C20.0861 8.99995 20.3611 9.05789 20.6156 9.17014C20.87 9.28238 21.0983 9.44646 21.2857 9.65189C21.4732 9.85733 21.6157 10.0996 21.7043 10.3632C21.7928 10.6269 21.8254 10.9061 21.8 11.183L21.233 17.365C21.1419 18.3585 20.683 19.2821 19.9461 19.9546C19.2092 20.6271 18.2476 20.9999 17.25 21H15.75C14.7524 20.9999 13.7908 20.6271 13.0539 19.9546C12.317 19.2821 11.858 18.3585 11.767 17.365L11.2 11.183C11.1745 10.9061 11.2071 10.6269 11.2957 10.3632C11.3842 10.0996 11.5268 9.85733 11.7142 9.65189C11.9017 9.44646 12.1299 9.28238 12.3844 9.17014C12.6388 9.05789 12.9139 8.99995 13.192 9Z" stroke="#CAD1D9" stroke-width="1.5" stroke-linecap="round" stroke-linejoin="round"/>
<path d="M15 13H15.01" stroke="#CAD1D9" stroke-width="1.5" stroke-linecap="round" stroke-linejoin="round"/>
<path d="M18 13H18.01" stroke="#CAD1D9" stroke-width="1.5" stroke-linecap="round" stroke-linejoin="round"/>
<path d="M15 16.5C16 17.167 17 17.167 18 16.5" stroke="#CAD1D9" stroke-width="1.5" stroke-linecap="round" stroke-linejoin="round"/>
<path d="M8.63198 15.982C8.505 15.994 8.37753 16 8.24998 16H6.74998C5.75235 15.9999 4.79077 15.6271 4.05388 14.9546C3.317 14.2821 2.85801 13.3585 2.76698 12.365L2.19998 6.183C2.17453 5.90606 2.20712 5.62686 2.29567 5.36323C2.38421 5.09959 2.52677 4.85733 2.71422 4.65189C2.90168 4.44646 3.12992 4.28238 3.38437 4.17014C3.63881 4.05789 3.91387 3.99995 4.19198 4H10.808C11.3384 4 11.8471 4.21071 12.2222 4.58579C12.5973 4.96086 12.808 5.46957 12.808 6" stroke="#CAD1D9" stroke-width="1.5" stroke-linecap="round" stroke-linejoin="round"/>
<path d="M6 8H6.01" stroke="#CAD1D9" stroke-width="1.5" stroke-linecap="round" stroke-linejoin="round"/>
<path d="M9 8H9.01" stroke="#CAD1D9" stroke-width="1.5" stroke-linecap="round" stroke-linejoin="round"/>
<path d="M6 12C6.764 11.49 7.528 11.37 8.291 11.64" stroke="#CAD1D9" stroke-width="1.5" stroke-linecap="round" stroke-linejoin="round"/>
</g>
<defs>
<clipPath id="clip0_1_419">
<rect width="24" height="24" fill="white"/>
</clipPath>
</defs>
</svg>
