<svg width="25" height="34" viewBox="0 0 25 34" fill="none" xmlns="http://www.w3.org/2000/svg">
<path d="M18.9976 15.8507C20.6319 15.0078 21.6545 13.5233 21.4156 11.0501C21.094 7.6703 18.2116 6.53697 14.573 6.21421L14.5723 1.52612H11.7531L11.7523 6.09092C11.0105 6.09092 10.2544 6.10568 9.50167 6.12097L9.50106 1.52675L6.68439 1.52648L6.68386 6.21341C6.07342 6.22603 5.47395 6.23803 4.8886 6.23803V6.22417L1 6.22257L1.00053 9.26985C1.00053 9.26985 3.08246 9.23021 3.04816 9.2687C4.18965 9.2695 4.56237 9.94061 4.66956 10.5199L4.67044 15.8606V23.3626C4.62018 23.7261 4.40869 24.307 3.61053 24.3081C3.64684 24.3404 1.55974 24.3077 1.55974 24.3077L1.00053 27.7153H4.66869C5.35219 27.7161 6.02377 27.7268 6.68263 27.7322L6.68509 32.4733L9.50106 32.4741L9.50027 27.7826C10.275 27.7986 11.0228 27.8056 11.7532 27.8046L11.7525 32.4741H14.5716L14.5732 27.7409C19.3119 27.4653 22.6295 26.2567 23.0419 21.7511C23.3744 18.1236 21.6881 16.5044 18.9976 15.8507ZM9.56904 9.47554C11.159 9.47554 16.1596 8.96292 16.1603 12.3257C16.1596 15.5496 11.1606 15.173 9.56904 15.173V9.47554ZM9.56781 24.3312L9.56904 18.0492C11.4794 18.0487 17.4712 17.4927 17.472 21.1888C17.4728 24.7333 11.4794 24.3298 9.56781 24.3312Z" fill="#343434"/>
</svg>
