<svg width="23" height="32" viewBox="0 0 23 32" fill="none" xmlns="http://www.w3.org/2000/svg">
<path d="M17.9976 14.8507C19.6319 14.0078 20.6545 12.5233 20.4156 10.0501C20.094 6.6703 17.2116 5.53697 13.573 5.21421L13.5723 0.526123H10.7531L10.7523 5.09092C10.0105 5.09092 9.25439 5.10568 8.50167 5.12097L8.50106 0.526745L5.68439 0.526479L5.68386 5.21341C5.07342 5.22603 4.47395 5.23803 3.8886 5.23803V5.22417L0 5.22257L0.000526361 8.26985C0.000526361 8.26985 2.08246 8.23021 2.04816 8.2687C3.18965 8.2695 3.56237 8.94061 3.66956 9.5199L3.67044 14.8606V22.3626C3.62018 22.7261 3.40869 23.307 2.61053 23.3081C2.64684 23.3404 0.559737 23.3077 0.559737 23.3077L0.000526361 26.7153H3.66869C4.35219 26.7161 5.02377 26.7268 5.68263 26.7322L5.68509 31.4733L8.50106 31.4741L8.50027 26.7826C9.275 26.7986 10.0228 26.8056 10.7532 26.8046L10.7525 31.4741H13.5716L13.5732 26.7409C18.3119 26.4653 21.6295 25.2567 22.0419 20.7511C22.3744 17.1236 20.6881 15.5044 17.9976 14.8507ZM8.56904 8.47554C10.159 8.47554 15.1596 7.96292 15.1603 11.3257C15.1596 14.5496 10.1606 14.173 8.56904 14.173V8.47554ZM8.56781 23.3312L8.56904 17.0492C10.4794 17.0487 16.4712 16.4927 16.472 20.1888C16.4728 23.7333 10.4794 23.3298 8.56781 23.3312Z" fill="#9ABE57"/>
</svg>
