<svg width="55" height="100" viewBox="0 0 55 100" fill="none" xmlns="http://www.w3.org/2000/svg">
<path d="M19.2844 87.6123H9.81689C8.71232 87.6123 7.81689 86.7169 7.81689 85.6123V55.2788C7.81689 54.5563 8.20656 53.8899 8.83623 53.5357L26.5195 43.587C27.1283 43.2445 27.8719 43.2445 28.4808 43.587L37.3417 48.5722L40.1625 50.1939C40.6999 50.5028 41.0637 51.0435 41.1474 51.6577L41.4455 53.8452C41.5022 54.2609 41.6881 54.6482 41.977 54.9524L43.549 56.6076C43.8595 56.9344 44.0504 57.3565 44.0908 57.8055L44.2968 60.0929C44.3365 60.5333 44.521 60.9482 44.8215 61.2726L45.7017 62.2228C45.9322 62.4717 46.0957 62.7751 46.1766 63.1046L46.6183 64.9015L47.407 68.5257C47.4461 68.7051 47.4602 68.8891 47.4491 69.0724L47.1833 73.4415V85.6123C47.1833 86.7169 46.2879 87.6123 45.1833 87.6123H35.7159C34.6113 87.6123 33.7159 86.7169 33.7159 85.6123V71.3353C33.7159 70.7647 33.4722 70.2214 33.0462 69.8419L28.8304 66.0865C28.0722 65.4111 26.9281 65.4111 26.1698 66.0865L21.954 69.8419C21.528 70.2214 21.2844 70.7647 21.2844 71.3353V85.6123C21.2844 86.7169 20.3889 87.6123 19.2844 87.6123Z" fill="#DB0000"/>
<path d="M14.6919 34.2754V46.1201C14.6919 46.883 15.5119 47.3649 16.1784 46.9938L27.0136 40.9601C27.3161 40.7917 27.6842 40.7917 27.9866 40.9601L38.2157 46.6562C38.9917 47.0883 39.9039 46.3698 39.6655 45.5142L39.2025 43.8523C39.1202 43.5567 38.9067 43.3153 38.6234 43.1974L37.2738 42.6358C37.163 42.5897 37.0615 42.5241 36.9739 42.442L35.7788 41.3211C35.6024 41.1557 35.492 40.9321 35.4678 40.6915L35.2846 38.8655C35.2748 38.768 35.2507 38.6724 35.2131 38.5819L34.251 36.2649C34.1783 36.0898 34.1568 35.8977 34.1892 35.7109L34.5618 33.5575C34.5937 33.3731 34.5732 33.1835 34.5027 33.0101L34.0438 31.8821C33.9537 31.6609 33.9459 31.4146 34.0217 31.1881L34.4931 29.7788C34.5689 29.5522 34.5611 29.306 34.4711 29.0847L33.9549 27.816C33.9213 27.7334 33.8768 27.6556 33.8225 27.5848L32.7003 26.1195C32.5944 25.9812 32.5264 25.8176 32.5032 25.6449L32.0946 22.6097C32.0486 22.2682 31.83 21.9744 31.5161 21.8322L30.7189 21.4711C30.5539 21.3963 30.4123 21.2782 30.3092 21.1293L29.7027 20.2529C29.587 20.0857 29.525 19.8872 29.525 19.6838V18.134C29.525 17.8553 29.4087 17.5893 29.2041 17.4L28.278 16.5431C28.2304 16.499 28.1872 16.4505 28.149 16.3981L25.9461 13.3751C25.6119 12.9166 25.7257 12.2723 26.1967 11.956L26.8024 11.5492C27.1778 11.2972 27.257 10.7779 26.974 10.4254C26.735 10.1277 26.3144 10.0495 25.9843 10.2413L25.0839 10.7647C24.6383 11.0237 24.0688 10.9017 23.7686 10.4828L23.2833 9.80574C23.0581 9.49157 22.6302 9.40139 22.2974 9.59794C21.927 9.81667 21.8177 10.3025 22.0588 10.6587L22.3964 11.1575C22.7147 11.6278 22.578 12.2683 22.0955 12.5677L21.2669 13.0818C20.8519 13.3393 20.7581 13.903 21.0672 14.281C21.3257 14.5971 21.7793 14.671 22.1247 14.4532L23.0453 13.8729C23.4867 13.5946 24.0679 13.7025 24.38 14.1208L26.0901 16.4124C26.3651 16.781 26.3533 17.2896 26.0615 17.6451L16.6872 29.0622C16.4972 29.2936 16.2136 29.4277 15.9143 29.4277H13.4316C12.8794 29.4277 12.4316 29.8754 12.4316 30.4277V32.2754C12.4316 32.8276 12.8794 33.2754 13.4316 33.2754H13.6919C14.2442 33.2754 14.6919 33.7231 14.6919 34.2754Z" fill="#DB0000"/>
<rect x="4.61475" y="88.9262" width="45.7705" height="4.88001" rx="2" fill="#DB0000"/>
<rect y="95.12" width="55" height="4.88001" rx="2" fill="#DB0000"/>
<path d="M31.2368 19.2854V17.2677C38.8087 17.5305 41.8319 5.39616 45.7873 0C44.7828 1.45462 43.1286 6.93524 46.5943 19.2854C50.0601 31.6356 41.1239 34.8362 35.897 34.8831L36.3224 32.6116L35.7103 31.0162L36.3695 28.8108L35.5219 26.7931L34.2505 25.1508L33.6854 21.2562L32.0844 20.5054L31.2368 19.2854Z" fill="#DB0000"/>
<path d="M36.9107 37.7908L36.2017 36.3626C50.2813 35.5648 50.1088 24.831 48.1311 19.4817C59.9033 32.3856 46.5326 42.0558 40.254 41.9932L38.4196 41.395L37.1461 40.137L36.9107 37.7908Z" fill="#DB0000"/>
</svg>
