<svg width="12" height="16" viewBox="0 0 12 16" fill="none" xmlns="http://www.w3.org/2000/svg">
<path d="M11.995 9.23961C11.9091 8.19116 11.2468 8.71657 11.022 7.98201C10.8866 7.53894 11.78 7.82547 11.9342 6.30482C12.3403 2.32027 8.68946 0.0739551 6.00122 0H6.00004H5.99887C3.31081 0.0739822 -0.340224 2.32051 0.0659273 6.30512C0.220352 7.82565 1.11344 7.53912 0.978041 7.98231C0.753271 8.71663 0.0905793 8.19146 0.00498976 9.23991C-0.0216677 9.55545 0.00275832 10.7537 1.56274 11.1986C2.8525 11.5656 2.8672 12.6463 3.05801 14.5353C4.05878 14.6569 4.88915 15.162 5.64509 15.162L6.0001 15.1468L6.35512 15.162C7.11105 15.162 7.9413 14.6569 8.94183 14.5349C9.1329 12.6459 9.14758 11.5652 10.4373 11.1982C11.9973 10.7535 12.0218 9.55512 11.995 9.2397L11.995 9.23961ZM2.16526 7.8951C2.38851 6.86003 4.96783 6.77642 5.03698 8.05246C5.10591 9.32828 2.71461 10.0221 2.16526 7.8951ZM6.63744 10.8401C6.26893 11.0683 6.08068 10.7815 6.00143 10.7297C6.00108 10.7298 6.00061 10.7304 6.00025 10.7305C5.9999 10.7304 5.99943 10.7298 5.99908 10.7297C5.91981 10.7817 5.73168 11.0684 5.36307 10.8401C5.11646 10.6878 5.63481 8.87849 5.99908 8.87849C5.99943 8.87849 5.99978 8.87861 6.00025 8.87861C6.00072 8.87861 6.00096 8.87849 6.00143 8.87849C6.3657 8.87849 6.88405 10.6878 6.63744 10.8401ZM6.96357 8.05257C7.03262 6.77666 9.61194 6.86015 9.83528 7.89521C9.28582 10.022 6.89451 9.32825 6.96357 8.05257Z" fill="white"/>
</svg>
