<svg width="362" height="225" viewBox="0 0 362 225" fill="none" xmlns="http://www.w3.org/2000/svg">
<path d="M0 32C0 14.3269 14.3269 0 32 0H330C347.673 0 362 14.3269 362 32V225H0V32Z" fill="#535353"/>
<path d="M167.068 189.481H142.722C141.804 189.481 141.06 188.738 141.06 187.82V121.435C141.06 120.836 141.383 120.283 141.905 119.988L180.683 98.1135C181.19 97.8275 181.81 97.8275 182.317 98.1135L201.72 109.059L208.559 113.001C209.005 113.258 209.307 113.707 209.376 114.217L210.258 120.708C210.305 121.053 210.459 121.374 210.698 121.627L215.458 126.651L216.085 133.628C216.117 133.993 216.27 134.337 216.519 134.606L219.327 137.646C219.518 137.852 219.653 138.104 219.72 138.377L220.779 142.697L222.472 150.496C222.504 150.645 222.516 150.797 222.507 150.949L221.94 160.29V187.82C221.94 188.738 221.196 189.481 220.278 189.481H195.932C195.014 189.481 194.27 188.738 194.27 187.82V154.847C194.27 154.374 194.069 153.923 193.716 153.608L182.607 143.686C181.977 143.123 181.023 143.123 180.393 143.686L169.284 153.608C168.931 153.923 168.729 154.374 168.729 154.847V187.82C168.729 188.738 167.985 189.481 167.068 189.481Z" fill="#252525"/>
<path d="M191.562 125.588C191.562 131.087 187.1 135.544 181.597 135.544C176.093 135.544 171.632 131.087 171.632 125.588C171.632 120.089 176.093 115.632 181.597 115.632C187.1 115.632 191.562 120.089 191.562 125.588Z" fill="#252525"/>
<path d="M155.185 79.2085V104.682C155.185 105.95 156.549 106.751 157.657 106.132L180.69 93.2722C181.193 92.991 181.807 92.991 182.31 93.2722L204.337 105.571C205.626 106.29 207.144 105.098 206.749 103.676L205.275 98.3713L201.515 96.8025C201.331 96.7256 201.162 96.6162 201.016 96.4794L198.4 94.0191C198.108 93.7444 197.925 93.3733 197.885 92.9744L197.487 89.0037C197.471 88.8421 197.432 88.6837 197.369 88.5336L195.141 83.1536L196.109 77.5472L194.888 74.539C194.739 74.1723 194.726 73.7645 194.852 73.389L196.109 69.621L194.741 66.2511C194.686 66.114 194.612 65.9849 194.522 65.8673L192.119 62.7217C191.944 62.4921 191.832 62.2208 191.793 61.9345L190.91 55.3563C190.834 54.7894 190.471 54.3014 189.95 54.0648L188.014 53.1855C187.74 53.0609 187.505 52.8643 187.334 52.6165L185.954 50.618C185.763 50.3405 185.66 50.0115 185.66 49.6744V46.1803C185.66 45.7182 185.467 45.2769 185.129 44.9626L183.07 43.0525C182.991 42.9792 182.919 42.8985 182.856 42.8113L178.062 36.2155C177.509 35.4545 177.697 34.3866 178.478 33.8611L180.069 32.7899C180.839 32.271 181.002 31.2047 180.422 30.4796C179.929 29.8649 179.061 29.7034 178.381 30.1L176.23 31.3537C175.488 31.7858 174.54 31.5824 174.041 30.8844L172.838 29.2018C172.374 28.554 171.492 28.3681 170.807 28.7739C170.047 29.2237 169.823 30.2201 170.317 30.9518L171.248 32.3306C171.775 33.1111 171.548 34.1728 170.748 34.6703L168.688 35.9521C167.837 36.4811 167.647 37.6393 168.28 38.4153C168.811 39.0667 169.748 39.2213 170.458 38.7721L172.652 37.3857C173.386 36.9214 174.354 37.1012 174.873 37.7982L178.791 43.0618C179.246 43.6733 179.226 44.516 178.743 45.1058L159.166 69.012C158.851 69.3975 158.379 69.621 157.88 69.621H152.203C151.285 69.621 150.541 70.3648 150.541 71.2823V75.8859C150.541 76.8035 151.285 77.5472 152.203 77.5472H153.523C154.441 77.5472 155.185 78.291 155.185 79.2085Z" fill="#252525"/>
<path d="M134.481 193.849C134.481 192.932 135.225 192.188 136.143 192.188H226.857C227.775 192.188 228.519 192.932 228.519 193.849V200.579C228.519 201.497 227.775 202.241 226.857 202.241H136.143C135.225 202.241 134.481 201.497 134.481 200.579V193.849Z" fill="#252525"/>
<path d="M125 206.608C125 205.691 125.744 204.947 126.662 204.947H236.338C237.256 204.947 238 205.691 238 206.608V213.339C238 214.256 237.256 215 236.338 215H126.662C125.744 215 125 214.256 125 213.339V206.608Z" fill="#252525"/>
<path d="M188.466 78.7072C188.466 82.5509 185.347 85.6668 181.5 85.6668C177.653 85.6668 174.534 82.5509 174.534 78.7072C174.534 74.8635 177.653 71.7475 181.5 71.7475C185.347 71.7475 188.466 74.8635 188.466 78.7072Z" fill="#252525"/>
<path d="M189.178 48.728V44.5715C204.734 45.1128 210.946 20.1161 219.072 9C217.008 11.9965 213.61 23.2866 220.73 48.728C227.851 74.1693 209.491 80.7626 198.752 80.8593L199.626 76.1799L198.369 72.8934L199.723 68.3503L197.982 64.1938L195.369 60.8107L194.208 52.7877L190.919 51.2412L189.178 48.728Z" fill="#252525"/>
<path d="M200.835 86.8491L199.378 83.9069C228.305 82.2635 227.951 60.1518 223.888 49.1323C248.074 75.7143 220.604 95.6349 207.704 95.5061L203.935 94.2737L201.319 91.6822L200.835 86.8491Z" fill="#252525"/>
</svg>
