<svg width="26" height="26" viewBox="0 0 26 26" fill="none" xmlns="http://www.w3.org/2000/svg">
<path fill-rule="evenodd" clip-rule="evenodd" d="M7 1.5H19C22.0376 1.5 24.5 3.96243 24.5 7V19C24.5 22.0376 22.0376 24.5 19 24.5H12.5455V15H17.2658C17.4034 15 17.5234 14.9063 17.5568 14.7728L17.9068 13.3728C17.9541 13.1834 17.8109 13 17.6158 13H12.5455C12.5455 6.98727 13.8923 6.9905 17.5582 6.9993C17.6047 6.99941 17.6516 6.99953 17.6989 6.99963C17.8646 6.99998 18 6.86569 18 6.7V5.3C18 5.13431 17.8624 4.99987 17.6967 5.00114C11.919 5.04544 10.421 6.4031 10.3756 12.6961C10.3744 12.8618 10.2402 13 10.0745 13H6.17695C6.01127 13 5.87695 13.1343 5.87695 13.3V14.7C5.87695 14.8657 6.01127 15 6.17695 15H10.3745L10.3642 24.5H7C3.96243 24.5 1.5 22.0376 1.5 19V7C1.5 3.96243 3.96243 1.5 7 1.5ZM0 7C0 3.13401 3.13401 0 7 0H19C22.866 0 26 3.13401 26 7V19C26 22.866 22.866 26 19 26H7C3.13401 26 0 22.866 0 19V7Z" fill="#9F9F9F"/>
</svg>
