<svg width="26" height="26" viewBox="0 0 26 26" fill="none" xmlns="http://www.w3.org/2000/svg">
<path d="M5.95168 9.80685H8.97313V19.5254H5.95168V9.80685ZM7.46368 8.47813C8.42841 8.47813 9.21495 7.69413 9.21495 6.72686C9.21495 6.49688 9.16965 6.26915 9.08164 6.05667C8.99363 5.8442 8.86464 5.65114 8.70202 5.48852C8.5394 5.3259 8.34634 5.1969 8.13386 5.10889C7.92139 5.02088 7.69366 4.97559 7.46368 4.97559C7.2337 4.97559 7.00597 5.02088 6.7935 5.10889C6.58102 5.1969 6.38796 5.3259 6.22534 5.48852C6.06272 5.65114 5.93373 5.8442 5.84572 6.05667C5.75771 6.26915 5.71241 6.49688 5.71241 6.72686C5.70986 7.69413 6.49386 8.47813 7.46368 8.47813ZM13.8859 14.717C13.8859 13.4494 14.1277 12.2225 15.6982 12.2225C17.2459 12.2225 17.2688 13.6709 17.2688 14.7985V19.5254H20.2877V14.1952C20.2877 11.5785 19.7226 9.56504 16.6655 9.56504C15.1968 9.56504 14.2117 10.3719 13.8069 11.1356H13.7662V9.80685H10.8669V19.5254H13.8859V14.717Z" fill="#9F9F9F"/>
<rect x="1" y="1" width="24" height="24" rx="6" stroke="#9F9F9F" stroke-width="2"/>
</svg>
