<svg width="89" height="84" viewBox="0 0 89 84" fill="none" xmlns="http://www.w3.org/2000/svg">
<path d="M0.00427592 9.33277C0.00427592 6.11185 2.34293 5.42863 3.51226 5.48963H4.43384C7.19002 5.48963 9.42642 7.72003 9.43382 10.4762L9.59173 69.3135C9.59913 72.0696 11.8355 74.3001 14.5917 74.3001H23.1315C23.8289 74.3001 24.7923 74.5875 25.4034 74.9235C28.8627 76.8256 26.9106 80.8883 22.9629 80.8883H3.32763C0.521241 80.8883 -0.0572676 78.9362 0.00427592 77.9602V9.33277Z" fill="#DB0000"/>
<path d="M88.9957 9.33277C88.9957 6.11185 86.6571 5.42863 85.4877 5.48963H84.5662C81.81 5.48963 79.5736 7.72003 79.5662 10.4762L79.4083 69.3135C79.4009 72.0696 77.1645 74.3001 74.4083 74.3001H65.8685C65.1711 74.3001 64.2077 74.5875 63.5966 74.9235C60.1373 76.8256 62.0894 80.8883 66.0371 80.8883H85.6724C88.4788 80.8883 89.0573 78.9362 88.9957 77.9602V9.33277Z" fill="#DB0000"/>
<path d="M15.8818 63.9707V3.94029C15.8818 1.95834 17.7711 0.52372 19.6425 1.17641C28.7178 4.34167 36.4725 9.35821 40.2742 12.3028C40.9748 12.8455 41.3608 13.6882 41.3608 14.5744V73.5331C41.3608 76.5477 36.8996 78.0195 34.6683 75.9924C29.0144 70.8558 22.7329 68.2018 18.4702 67.1213C17.0055 66.75 15.8818 65.4817 15.8818 63.9707Z" fill="#DB0000"/>
<path d="M73.1182 63.9707V3.94029C73.1182 1.95834 71.2289 0.52372 69.3575 1.17641C60.2822 4.34167 52.5275 9.35821 48.7258 12.3028C48.0252 12.8455 47.6391 13.6882 47.6391 14.5744V73.5331C47.6391 76.5477 52.1004 78.0195 54.3317 75.9924C59.9856 70.8558 66.2671 68.2018 70.5298 67.1213C71.9945 66.75 73.1182 65.4817 73.1182 63.9707Z" fill="#DB0000"/>
</svg>
