<svg width="26" height="28" viewBox="0 0 26 28" fill="none" xmlns="http://www.w3.org/2000/svg">
<path d="M25.0301 9.76731C25.0301 14.8079 22.8926 19.3893 19.406 22.7833C17.6024 24.5408 15.4342 25.9803 13.0151 27C10.599 25.9817 8.43468 24.5452 6.63112 22.7917C3.14056 19.397 1 14.8129 1 9.76865C0.999739 9.10375 1.03721 8.43937 1.11222 7.77872C3.75277 7.28274 5.73936 5.13182 5.73936 2.55273C5.7396 2.09357 5.67586 1.63662 5.54998 1.19505C7.94338 1.06713 10.4146 1 12.9412 1C15.4752 1 17.9535 1.0668 20.3535 1.19605C20.228 1.63733 20.1643 2.09393 20.1645 2.55273C20.1645 5.17324 22.2162 7.35254 24.9206 7.80143C24.9936 8.45417 25.0302 9.11049 25.0301 9.76731Z" stroke="white" stroke-width="1.93013" stroke-linecap="round" stroke-linejoin="round"/>
<path fill-rule="evenodd" clip-rule="evenodd" d="M16.847 16.1703C16.5953 16.0786 16.3243 16.053 16.0599 16.096C15.7954 16.1391 15.5465 16.2494 15.337 16.4163C15.1275 16.5832 14.9643 16.8011 14.8632 17.0492C14.7621 17.2972 14.7264 17.5671 14.7595 17.8329L7.41834 9.54992C7.34594 9.47231 7.28993 9.38089 7.25364 9.28114C7.21736 9.1814 7.20155 9.07536 7.20716 8.96936C7.21277 8.86337 7.23969 8.75959 7.2863 8.66423C7.33292 8.56887 7.39827 8.48388 7.47846 8.41435C7.78106 8.14147 8.24164 8.15249 8.54724 8.42303L16.847 16.1703ZM19.0313 8.33086L17.9678 11.1214L14.8517 14.0832L13.2405 12.5615L16.2408 9.39396L19.0313 8.33086ZM11.5051 14.3821L12.8745 15.9569L12.2128 16.5855L11.5909 15.7712L10.777 15.1493L11.5051 14.3821ZM12.9025 18.1295L12.3414 18.6903L10.9998 17.349L9.42198 18.9268C9.43219 19.1361 9.37877 19.3437 9.26876 19.5221C9.15874 19.7005 8.99729 19.8415 8.80564 19.9264C8.61399 20.0113 8.40113 20.0362 8.19506 19.9978C7.98899 19.9594 7.79937 19.8595 7.65115 19.7113C7.50293 19.5631 7.40306 19.3735 7.36467 19.1674C7.32628 18.9613 7.35118 18.7485 7.43609 18.5568C7.521 18.3652 7.66194 18.2037 7.84036 18.0937C8.01879 17.9837 8.22634 17.9303 8.4357 17.9405L10.0148 16.3624L8.67317 15.0207L9.23127 14.4593L11.3117 16.0491L12.9025 18.1295ZM17.4258 17.2989C17.4334 17.3808 17.4457 17.4622 17.4625 17.5427C17.5452 17.9377 17.7308 18.3038 18.0005 18.604C18.2702 18.9043 18.6143 19.1279 18.9982 19.2524C18.6815 19.4932 18.3105 19.6524 17.9177 19.716C17.525 19.7795 17.1226 19.7454 16.7462 19.6167C16.3698 19.488 16.0308 19.2686 15.7591 18.9779C15.4875 18.6872 15.2916 18.3341 15.1887 17.9498C15.17 17.8804 15.1545 17.8098 15.1423 17.7381C15.1365 17.6908 15.1336 17.6432 15.1336 17.5955C15.1342 17.3127 15.2376 17.0398 15.4246 16.8276C15.6115 16.6155 15.8692 16.4785 16.1496 16.4422C16.4301 16.4059 16.7141 16.4728 16.9489 16.6304C17.1837 16.788 17.3532 17.0256 17.4258 17.2989ZM16.3794 18.854C16.4401 18.9126 16.5047 18.9672 16.5727 19.0173C16.6406 19.0662 16.712 19.1099 16.7865 19.1479C16.7219 19.097 16.6614 19.0412 16.6055 18.9809C16.5511 18.9209 16.5009 18.8573 16.4552 18.7905C16.3656 18.6574 16.2906 18.5151 16.2314 18.366C16.1727 18.218 16.1254 18.0657 16.0898 17.9104C16.0718 17.8323 16.0564 17.7545 16.044 17.6766C16.0377 17.6379 16.032 17.5992 16.0273 17.5604L16.021 17.503L16.021 17.5028C16.019 17.4844 16.0167 17.4632 16.0167 17.4492C16.016 17.434 16.014 17.4189 16.0106 17.4041C16.0041 17.3783 15.9925 17.3541 15.9765 17.3328C15.9606 17.3115 15.9406 17.2936 15.9177 17.28C15.8949 17.2665 15.8695 17.2575 15.8432 17.2537C15.8169 17.25 15.7901 17.2514 15.7643 17.258C15.7386 17.2646 15.7143 17.2762 15.693 17.2921C15.6718 17.308 15.6538 17.328 15.6402 17.3509C15.6267 17.3738 15.6177 17.3991 15.614 17.4254C15.6102 17.4517 15.6116 17.4785 15.6182 17.5043L15.6215 17.516C15.6279 17.5417 15.6339 17.5607 15.6409 17.5828L15.6613 17.6459C15.6753 17.6873 15.6903 17.7281 15.7054 17.7688C15.7363 17.8499 15.7697 17.9295 15.8056 18.0076C15.8772 18.1639 15.9604 18.3146 16.0544 18.4585C16.1482 18.6016 16.2572 18.7342 16.3794 18.854Z" fill="white"/>
</svg>
