<svg width="49" height="53" viewBox="0 0 49 53" fill="none" xmlns="http://www.w3.org/2000/svg">
<path d="M47.0005 18.5407C47.0005 27.883 43.0387 36.3741 36.5767 42.6647C33.234 45.922 29.2153 48.59 24.7317 50.4799C20.2537 48.5925 16.2424 45.93 12.8996 42.6802C6.43022 36.3884 2.46289 27.8923 2.46289 18.5431C2.46241 17.3108 2.53185 16.0794 2.67088 14.855C7.56489 13.9357 11.2469 9.94922 11.2469 5.16911C11.2473 4.3181 11.1292 3.47118 10.8959 2.65277C15.3318 2.41568 19.912 2.29126 24.5949 2.29126C29.2914 2.29126 33.8846 2.41506 38.3329 2.65463C38.1001 3.4725 37.9822 4.31876 37.9825 5.16911C37.9825 10.026 41.7852 14.0651 46.7974 14.8971C46.9329 16.1069 47.0006 17.3233 47.0005 18.5407Z" stroke="#171717" stroke-width="3.57731" stroke-linecap="round" stroke-linejoin="round"/>
<path fill-rule="evenodd" clip-rule="evenodd" d="M31.8334 30.4081C31.3669 30.238 30.8646 30.1906 30.3745 30.2704C29.8845 30.3502 29.4232 30.5546 29.0348 30.8639C28.6464 31.1732 28.344 31.5772 28.1566 32.0369C27.9692 32.4967 27.903 32.9969 27.9645 33.4896L14.3583 18.1378C14.2241 17.9939 14.1203 17.8245 14.053 17.6396C13.9858 17.4547 13.9565 17.2582 13.9669 17.0618C13.9773 16.8653 14.0272 16.673 14.1136 16.4962C14.2 16.3195 14.3211 16.162 14.4697 16.0331C15.0306 15.5273 15.8842 15.5478 16.4506 16.0492L31.8334 30.4081ZM35.8818 15.8784L33.9108 21.0503L28.1353 26.5398L25.1491 23.7195L30.7098 17.8487L35.8818 15.8784ZM21.9327 27.0938L24.4707 30.0125L23.2444 31.1775L22.0918 29.6684L20.5832 28.5157L21.9327 27.0938ZM24.5227 34.0393L23.4828 35.0786L20.9961 32.5926L18.0719 35.5169C18.0908 35.9049 17.9918 36.2896 17.7879 36.6203C17.584 36.951 17.2847 37.2122 16.9295 37.3696C16.5743 37.527 16.1798 37.5731 15.7979 37.502C15.4159 37.4308 15.0645 37.2457 14.7898 36.971C14.5151 36.6963 14.33 36.3448 14.2588 35.9629C14.1877 35.581 14.2338 35.1865 14.3912 34.8312C14.5486 34.476 14.8098 34.1768 15.1405 33.9729C15.4712 33.769 15.8558 33.67 16.2439 33.6889L19.1706 30.764L16.684 28.2774L17.7184 27.2368L21.5743 30.1834L24.5227 34.0393ZM32.9061 32.4998C32.9203 32.6516 32.943 32.8025 32.9742 32.9517C33.1276 33.6837 33.4715 34.3623 33.9713 34.9187C34.4711 35.4752 35.109 35.8897 35.8205 36.1205C35.2336 36.5668 34.5458 36.8619 33.8179 36.9796C33.09 37.0974 32.3443 37.0341 31.6466 36.7956C30.9489 36.557 30.3206 36.1504 29.8172 35.6117C29.3138 35.0729 28.9507 34.4185 28.7599 33.7063C28.7252 33.5775 28.6966 33.4467 28.6739 33.3138C28.6632 33.2261 28.6578 33.1378 28.6578 33.0495C28.659 32.5254 28.8507 32.0196 29.1971 31.6263C29.5436 31.2331 30.0212 30.9792 30.5409 30.9119C31.0607 30.8447 31.5872 30.9687 32.0223 31.2608C32.4575 31.5529 32.7716 31.9933 32.9061 32.4998ZM30.9667 35.382C31.0794 35.4907 31.1991 35.5918 31.3251 35.6847C31.4508 35.7754 31.5833 35.8563 31.7213 35.9267C31.6016 35.8324 31.4895 35.7289 31.3858 35.6172C31.285 35.5061 31.1919 35.3882 31.1073 35.2643C30.9413 35.0177 30.8022 34.7539 30.6925 34.4776C30.5837 34.2032 30.496 33.9209 30.43 33.6332C30.3966 33.4884 30.3681 33.3441 30.3452 33.1999C30.3335 33.1281 30.3229 33.0563 30.3143 32.9845L30.3025 32.878L30.3025 32.8776C30.2988 32.8437 30.2945 32.8043 30.2945 32.7783C30.2932 32.7502 30.2895 32.7223 30.2833 32.6948C30.2711 32.647 30.2497 32.6021 30.2201 32.5627C30.1906 32.5232 30.1535 32.49 30.1112 32.4648C30.0688 32.4397 30.0218 32.4231 29.973 32.4161C29.9243 32.4091 29.8746 32.4118 29.8268 32.424C29.779 32.4361 29.7342 32.4576 29.6947 32.4872C29.6552 32.5167 29.622 32.5537 29.5968 32.5961C29.5717 32.6385 29.5551 32.6855 29.5481 32.7342C29.5411 32.783 29.5438 32.8327 29.556 32.8805L29.5622 32.9021C29.5739 32.9498 29.5851 32.9851 29.5981 33.026L29.6358 33.143C29.6618 33.2197 29.6897 33.2952 29.7175 33.3708C29.7749 33.521 29.8368 33.6685 29.9032 33.8134C30.0361 34.1029 30.1903 34.3823 30.3644 34.649C30.5383 34.9142 30.7403 35.16 30.9667 35.382Z" fill="#171717"/>
</svg>
