<svg width="82" height="28" viewBox="0 0 82 28" fill="none" xmlns="http://www.w3.org/2000/svg">
<path d="M40.2952 12.3929C39.2964 12.3929 38.4543 12.1677 37.7688 11.7172C37.0834 11.2668 36.6868 10.6156 36.5791 9.76372H37.7688C37.8472 10.3023 38.1116 10.7184 38.562 11.0122C39.0222 11.306 39.5657 11.4529 40.1924 11.4529C40.4666 11.4529 40.731 11.4235 40.9856 11.3647C41.2402 11.2962 41.4507 11.1934 41.6172 11.0563C41.7836 10.9094 41.8669 10.7282 41.8669 10.5128C41.8669 10.3268 41.8032 10.1799 41.6759 10.0722C41.5486 9.95466 41.3723 9.85674 41.1471 9.7784C40.9317 9.70007 40.5939 9.60215 40.1336 9.48464C40.0651 9.47485 39.9917 9.46016 39.9133 9.44058C39.8448 9.4112 39.7713 9.39162 39.693 9.38182C39.1348 9.24473 38.655 9.09296 38.2536 8.92649C37.8521 8.75023 37.5142 8.50053 37.2401 8.17739C36.9659 7.85425 36.8288 7.44298 36.8288 6.94358C36.8288 6.4246 36.9855 5.99864 37.2988 5.66571C37.6122 5.32299 38.0136 5.07818 38.5033 4.9313C39.0027 4.77463 39.5265 4.69629 40.0749 4.69629C41.0149 4.69629 41.8032 4.91172 42.4397 5.34257C43.0762 5.77342 43.4385 6.40502 43.5266 7.23735H42.3516C42.2536 6.71836 41.999 6.32178 41.5878 6.0476C41.1863 5.77342 40.6869 5.63633 40.0896 5.63633C39.6881 5.63633 39.3307 5.71467 39.0173 5.87134C38.704 6.01823 38.5473 6.26303 38.5473 6.60575C38.5473 6.79181 38.6159 6.94848 38.753 7.07578C38.8998 7.19328 39.0908 7.2912 39.3258 7.36954C39.5608 7.44788 39.9133 7.5458 40.3833 7.6633C40.4421 7.6731 40.5008 7.68778 40.5596 7.70737C40.6281 7.72695 40.6967 7.74654 40.7652 7.76612C40.7848 7.77591 40.8093 7.78571 40.8387 7.7955C40.8681 7.7955 40.8974 7.80039 40.9268 7.81019C41.4654 7.93748 41.9305 8.08437 42.3222 8.25083C42.7139 8.4173 43.037 8.65231 43.2916 8.95587C43.556 9.24963 43.6882 9.62663 43.6882 10.0869C43.6882 10.6058 43.5266 11.0367 43.2035 11.3794C42.8803 11.7221 42.4593 11.9767 41.9403 12.1432C41.4213 12.3097 40.873 12.3929 40.2952 12.3929Z" fill="#171717"/>
<path d="M46.9653 12.3782C46.2015 12.3782 45.6042 12.202 45.1733 11.8494C44.7522 11.4871 44.5417 11.0073 44.5417 10.41C44.5417 9.93997 44.6788 9.54829 44.953 9.23494C45.2369 8.9118 45.6237 8.67189 46.1133 8.51522C46.6127 8.34875 47.2101 8.23614 47.9053 8.17739C48.5418 8.12843 49.0069 8.02561 49.3007 7.86894C49.6042 7.71227 49.756 7.48215 49.756 7.17859C49.756 6.73795 49.6091 6.39522 49.3154 6.15042C49.0314 5.89583 48.6544 5.76853 48.1844 5.76853C47.6752 5.76853 47.2394 5.9252 46.8771 6.23855C46.5246 6.54211 46.3043 6.95338 46.2162 7.47236H45.1145C45.1929 6.91421 45.3838 6.4295 45.6874 6.01823C45.9909 5.59716 46.3826 5.27892 46.8624 5.06349C47.352 4.83827 47.9053 4.72567 48.5222 4.72567C49.1489 4.72567 49.7022 4.84807 50.182 5.09287C50.6716 5.33767 51.0486 5.69019 51.313 6.15042C51.5774 6.61065 51.7095 7.14432 51.7095 7.75143V11.1738H52.5615V12.2166H49.8588V10.8066C49.5944 11.306 49.2077 11.6928 48.6985 11.9669C48.1991 12.2411 47.6213 12.3782 46.9653 12.3782ZM47.6703 11.3207C48.0424 11.3207 48.39 11.2227 48.7132 11.0269C49.0363 10.8213 49.2958 10.5422 49.4916 10.1897C49.6875 9.82737 49.7854 9.43078 49.7854 8.99993V8.30959C49.6875 8.40751 49.5259 8.49564 49.3007 8.57397C49.0853 8.65231 48.8453 8.71106 48.581 8.75023C48.5614 8.75023 48.5369 8.75513 48.5075 8.76492C48.4879 8.76492 48.4684 8.76492 48.4488 8.76492C47.8025 8.85305 47.3374 9.01462 47.0534 9.24963C46.7694 9.48464 46.6274 9.80778 46.6274 10.2191C46.6274 10.5716 46.7205 10.8457 46.9065 11.0416C47.0926 11.2276 47.3472 11.3207 47.6703 11.3207Z" fill="#171717"/>
<path d="M52.7546 4.87255H54.9431L57.1904 10.6597H57.2492L59.5112 4.87255H60.7303L57.8073 12.2166H55.6775L52.7546 4.87255Z" fill="#171717"/>
<path d="M65.2083 12.3635C64.4446 12.3635 63.7591 12.2069 63.152 11.8935C62.5547 11.5704 62.0847 11.1199 61.7419 10.5422C61.409 9.96446 61.2425 9.30838 61.2425 8.57397C61.2425 7.82977 61.4139 7.1688 61.7566 6.59107C62.0993 6.00354 62.5743 5.5482 63.1814 5.22506C63.7885 4.89213 64.4739 4.72567 65.2377 4.72567C65.9917 4.72567 66.6576 4.88724 67.2353 5.21038C67.8228 5.53352 68.2831 5.98395 68.616 6.56169C68.9489 7.13943 69.1203 7.7955 69.1301 8.52991C69.1301 8.58866 69.1252 8.64741 69.1154 8.70617C69.1154 8.76492 69.1105 8.82367 69.1007 8.88242H63.2842C63.3136 9.39162 63.4262 9.83226 63.622 10.2044C63.8179 10.5667 64.0725 10.8457 64.3858 11.0416C64.7089 11.2276 65.081 11.3207 65.5021 11.3207C66.0015 11.3207 66.4324 11.2032 66.7947 10.9681C67.1668 10.7233 67.4312 10.3953 67.5878 9.98404H68.7629C68.6552 10.4345 68.4446 10.8409 68.1313 11.2032C67.8179 11.5655 67.4067 11.8494 66.8975 12.0551C66.3981 12.2607 65.835 12.3635 65.2083 12.3635ZM67.1031 8.17739C67.0737 7.63882 66.9758 7.18349 66.8094 6.81139C66.6429 6.4295 66.4177 6.14063 66.1337 5.94479C65.8595 5.74894 65.5462 5.65102 65.1937 5.65102C64.8411 5.65102 64.5229 5.75384 64.2389 5.95947C63.9647 6.15532 63.7444 6.43929 63.5779 6.81139C63.4115 7.1737 63.3136 7.59476 63.2842 8.07457V8.17739H67.1031Z" fill="#171717"/>
<path d="M39.0761 24.8904C38.3123 24.8904 37.715 24.7141 37.2841 24.3616C36.8631 23.9993 36.6525 23.5195 36.6525 22.9222C36.6525 22.4521 36.7896 22.0605 37.0638 21.7471C37.3478 21.424 37.7346 21.1841 38.2242 21.0274C38.7236 20.8609 39.3209 20.7483 40.0161 20.6896C40.6526 20.6406 41.1178 20.5378 41.4115 20.3811C41.7151 20.2244 41.8669 19.9943 41.8669 19.6908C41.8669 19.2501 41.72 18.9074 41.4262 18.6626C41.1422 18.408 40.7652 18.2807 40.2952 18.2807C39.786 18.2807 39.3503 18.4374 38.988 18.7507C38.6354 19.0543 38.4151 19.4655 38.327 19.9845H37.2254C37.3037 19.4264 37.4947 18.9417 37.7982 18.5304C38.1018 18.1093 38.4935 17.7911 38.9733 17.5757C39.4629 17.3504 40.0161 17.2378 40.633 17.2378C41.2597 17.2378 41.813 17.3602 42.2928 17.605C42.7824 17.8498 43.1594 18.2024 43.4238 18.6626C43.6882 19.1228 43.8204 19.6565 43.8204 20.2636V23.686H44.6723V24.7288H41.9697V23.3187C41.7053 23.8181 41.3185 24.2049 40.8093 24.4791C40.3099 24.7533 39.7322 24.8904 39.0761 24.8904ZM39.7811 23.8328C40.1532 23.8328 40.5008 23.7349 40.824 23.5391C41.1471 23.3334 41.4066 23.0544 41.6025 22.7018C41.7983 22.3395 41.8962 21.943 41.8962 21.5121V20.8218C41.7983 20.9197 41.6367 21.0078 41.4115 21.0861C41.1961 21.1645 40.9562 21.2232 40.6918 21.2624C40.6722 21.2624 40.6477 21.2673 40.6184 21.2771C40.5988 21.2771 40.5792 21.2771 40.5596 21.2771C39.9133 21.3652 39.4482 21.5268 39.1642 21.7618C38.8803 21.9968 38.7383 22.3199 38.7383 22.7312C38.7383 23.0837 38.8313 23.3579 39.0173 23.5538C39.2034 23.7398 39.458 23.8328 39.7811 23.8328Z" fill="#171717"/>
<path d="M46.2242 17.3847H48.1777V18.7507C48.4029 18.2709 48.7114 17.8988 49.1031 17.6344C49.5046 17.37 49.9648 17.2378 50.4838 17.2378C50.9734 17.2378 51.3993 17.3455 51.7616 17.561C52.124 17.7666 52.403 18.08 52.5989 18.501C52.8045 18.9123 52.9073 19.4215 52.9073 20.0286V20.3958H50.8804V20.0873C50.8804 19.5684 50.7824 19.1865 50.5866 18.9417C50.3907 18.6871 50.1068 18.5598 49.7347 18.5598C49.4605 18.5598 49.2108 18.6577 48.9856 18.8535C48.7604 19.0494 48.5841 19.3187 48.4568 19.6614C48.3295 19.9943 48.2659 20.3713 48.2659 20.7924V24.7288H46.2242V17.3847Z" fill="#171717"/>
<path d="M57.3591 24.8757C56.468 24.8757 55.7973 24.6701 55.3468 24.2588C54.9062 23.8475 54.6859 23.2355 54.6859 22.4228V18.4423H53.1436V17.3847H54.2746C54.4411 17.3847 54.5683 17.3407 54.6565 17.2525C54.7544 17.1546 54.8034 17.0175 54.8034 16.8413V15.6221H56.7422L56.7275 17.3847H59.3273V18.4423H56.7275V22.3199C56.7275 22.7998 56.8303 23.1572 57.036 23.3922C57.2514 23.6174 57.5843 23.73 58.0348 23.73C58.3579 23.73 58.7888 23.6615 59.3273 23.5244V24.5819C59.0825 24.6701 58.7692 24.7386 58.3873 24.7876C58.0152 24.8463 57.6725 24.8757 57.3591 24.8757Z" fill="#171717"/>
<path d="M67.5504 24.8757C66.9139 24.8757 66.3656 24.7386 65.9053 24.4644C65.4451 24.1902 65.0926 23.8035 64.8478 23.3041C64.603 22.7949 64.4806 22.1926 64.4806 21.4974V17.3847H66.5369L66.5516 21.3358C66.5516 22.08 66.6887 22.6578 66.9629 23.069C67.2469 23.4705 67.6385 23.6713 68.1379 23.6713C68.4709 23.6713 68.7695 23.5684 69.0339 23.3628C69.2983 23.1572 69.5039 22.8732 69.6508 22.5109C69.7977 22.1388 69.8712 21.7275 69.8712 21.2771V17.3847H71.9128V24.7288H69.974V23.4216C69.739 23.8818 69.4109 24.2392 68.9899 24.4938C68.5786 24.7484 68.0988 24.8757 67.5504 24.8757Z" fill="#171717"/>
<path d="M75.9544 24.8904C75.1906 24.8904 74.5933 24.7141 74.1624 24.3616C73.7413 23.9993 73.5308 23.5195 73.5308 22.9222C73.5308 22.4521 73.6679 22.0605 73.9421 21.7471C74.226 21.424 74.6128 21.1841 75.1024 21.0274C75.6018 20.8609 76.1992 20.7483 76.8944 20.6896C77.5309 20.6406 77.996 20.5378 78.2898 20.3811C78.5933 20.2244 78.7451 19.9943 78.7451 19.6908C78.7451 19.2501 78.5982 18.9074 78.3045 18.6626C78.0205 18.408 77.6435 18.2807 77.1735 18.2807C76.6643 18.2807 76.2285 18.4374 75.8662 18.7507C75.5137 19.0543 75.2934 19.4655 75.2053 19.9845H74.1036C74.182 19.4264 74.3729 18.9417 74.6765 18.5304C74.98 18.1093 75.3717 17.7911 75.8515 17.5757C76.3411 17.3504 76.8944 17.2378 77.5113 17.2378C78.138 17.2378 78.6913 17.3602 79.1711 17.605C79.6607 17.8498 80.0377 18.2024 80.3021 18.6626C80.5665 19.1228 80.6986 19.6565 80.6986 20.2636V23.686H81.5506V24.7288H78.8479V23.3187C78.5835 23.8181 78.1968 24.2049 77.6876 24.4791C77.1882 24.7533 76.6104 24.8904 75.9544 24.8904ZM76.6594 23.8328C77.0315 23.8328 77.3791 23.7349 77.7023 23.5391C78.0254 23.3334 78.2849 23.0544 78.4807 22.7018C78.6766 22.3395 78.7745 21.943 78.7745 21.5121V20.8218C78.6766 20.9197 78.515 21.0078 78.2898 21.0861C78.0744 21.1645 77.8344 21.2232 77.5701 21.2624C77.5505 21.2624 77.526 21.2673 77.4966 21.2771C77.477 21.2771 77.4575 21.2771 77.4379 21.2771C76.7916 21.3652 76.3265 21.5268 76.0425 21.7618C75.7585 21.9968 75.6165 22.3199 75.6165 22.7312C75.6165 23.0837 75.7096 23.3579 75.8956 23.5538C76.0817 23.7398 76.3363 23.8328 76.6594 23.8328Z" fill="#171717"/>
<path d="M25.0301 9.76731C25.0301 14.8079 22.8926 19.3893 19.406 22.7833C17.6024 24.5408 15.4342 25.9803 13.0151 27C10.599 25.9817 8.43468 24.5452 6.63112 22.7917C3.14056 19.397 1 14.8129 1 9.76865C0.999739 9.10375 1.03721 8.43937 1.11222 7.77872C3.75277 7.28274 5.73936 5.13182 5.73936 2.55273C5.7396 2.09357 5.67586 1.63662 5.54998 1.19505C7.94338 1.06713 10.4146 1 12.9412 1C15.4752 1 17.9535 1.0668 20.3535 1.19605C20.228 1.63733 20.1643 2.09393 20.1645 2.55273C20.1645 5.17324 22.2162 7.35254 24.9206 7.80143C24.9936 8.45417 25.0302 9.11049 25.0301 9.76731Z" stroke="#171717" stroke-width="1.93013" stroke-linecap="round" stroke-linejoin="round"/>
<path fill-rule="evenodd" clip-rule="evenodd" d="M16.847 16.1703C16.5953 16.0786 16.3243 16.053 16.0599 16.096C15.7954 16.1391 15.5465 16.2494 15.337 16.4163C15.1275 16.5832 14.9643 16.8011 14.8632 17.0492C14.7621 17.2972 14.7264 17.5671 14.7595 17.8329L7.41834 9.54992C7.34594 9.47231 7.28993 9.38089 7.25364 9.28114C7.21736 9.1814 7.20155 9.07536 7.20716 8.96936C7.21277 8.86337 7.23969 8.75959 7.2863 8.66423C7.33292 8.56887 7.39827 8.48388 7.47846 8.41435C7.78106 8.14147 8.24164 8.15249 8.54724 8.42303L16.847 16.1703ZM19.0313 8.33086L17.9678 11.1214L14.8517 14.0832L13.2405 12.5615L16.2408 9.39396L19.0313 8.33086ZM11.5051 14.3821L12.8745 15.9569L12.2128 16.5855L11.5909 15.7712L10.777 15.1493L11.5051 14.3821ZM12.9025 18.1295L12.3414 18.6903L10.9998 17.349L9.42198 18.9268C9.43219 19.1361 9.37877 19.3437 9.26876 19.5221C9.15874 19.7005 8.99729 19.8415 8.80564 19.9264C8.61399 20.0113 8.40113 20.0362 8.19506 19.9978C7.98899 19.9594 7.79937 19.8595 7.65115 19.7113C7.50293 19.5631 7.40306 19.3735 7.36467 19.1674C7.32628 18.9613 7.35118 18.7485 7.43609 18.5568C7.521 18.3652 7.66194 18.2037 7.84036 18.0937C8.01879 17.9837 8.22634 17.9303 8.4357 17.9405L10.0148 16.3624L8.67317 15.0207L9.23127 14.4593L11.3117 16.0491L12.9025 18.1295ZM17.4258 17.2989C17.4334 17.3808 17.4457 17.4622 17.4625 17.5427C17.5452 17.9377 17.7308 18.3038 18.0005 18.604C18.2702 18.9043 18.6143 19.1279 18.9982 19.2524C18.6815 19.4932 18.3105 19.6524 17.9177 19.716C17.525 19.7795 17.1226 19.7454 16.7462 19.6167C16.3698 19.488 16.0308 19.2686 15.7591 18.9779C15.4875 18.6872 15.2916 18.3341 15.1887 17.9498C15.17 17.8804 15.1545 17.8098 15.1423 17.7381C15.1365 17.6908 15.1336 17.6432 15.1336 17.5955C15.1342 17.3127 15.2376 17.0398 15.4246 16.8276C15.6115 16.6155 15.8692 16.4785 16.1496 16.4422C16.4301 16.4059 16.7141 16.4728 16.9489 16.6304C17.1837 16.788 17.3532 17.0256 17.4258 17.2989ZM16.3794 18.854C16.4401 18.9126 16.5047 18.9672 16.5727 19.0173C16.6406 19.0662 16.712 19.1099 16.7865 19.1479C16.7219 19.097 16.6614 19.0412 16.6055 18.9809C16.5511 18.9209 16.5009 18.8573 16.4552 18.7905C16.3656 18.6574 16.2906 18.5151 16.2314 18.366C16.1727 18.218 16.1254 18.0657 16.0898 17.9104C16.0718 17.8323 16.0564 17.7545 16.044 17.6766C16.0377 17.6379 16.032 17.5992 16.0273 17.5604L16.021 17.503L16.021 17.5028C16.019 17.4844 16.0167 17.4632 16.0167 17.4492C16.016 17.434 16.014 17.4189 16.0106 17.4041C16.0041 17.3783 15.9925 17.3541 15.9765 17.3328C15.9606 17.3115 15.9406 17.2936 15.9177 17.28C15.8949 17.2665 15.8695 17.2575 15.8432 17.2537C15.8169 17.25 15.7901 17.2514 15.7643 17.258C15.7386 17.2646 15.7143 17.2762 15.693 17.2921C15.6718 17.308 15.6538 17.328 15.6402 17.3509C15.6267 17.3738 15.6177 17.3991 15.614 17.4254C15.6102 17.4517 15.6116 17.4785 15.6182 17.5043L15.6215 17.516C15.6279 17.5417 15.6339 17.5607 15.6409 17.5828L15.6613 17.6459C15.6753 17.6873 15.6903 17.7281 15.7054 17.7688C15.7363 17.8499 15.7697 17.9295 15.8056 18.0076C15.8772 18.1639 15.9604 18.3146 16.0544 18.4585C16.1482 18.6016 16.2572 18.7342 16.3794 18.854Z" fill="#171717"/>
</svg>
