<svg width="19" height="23" viewBox="0 0 19 23" fill="none" xmlns="http://www.w3.org/2000/svg">
<circle cx="9.5" cy="9.5" r="3" stroke="#DADADA"/>
<path d="M9.49965 1C4.81317 1 1 4.46834 1 8.73143C1 9.84342 1.25023 10.9051 1.74335 11.8873C3.8685 16.1171 7.943 20.5828 9.14144 21.8506C9.23123 21.9454 9.36213 22 9.49988 22C9.63764 22 9.76854 21.9454 9.85833 21.8506" stroke="#DADADA"/>
<path d="M9.50035 1C14.1868 1 18 4.46834 18 8.73143C18 9.84342 17.7498 10.9051 17.2566 11.8873C15.1315 16.1171 11.057 20.5828 9.85856 21.8506C9.76877 21.9454 9.63787 22 9.50012 22C9.36236 22 9.23146 21.9454 9.14167 21.8506" stroke="#DADADA"/>
</svg>
