<svg width="17" height="17" viewBox="0 0 17 17" fill="none" xmlns="http://www.w3.org/2000/svg">
<path d="M17 8.5C17 13.1944 13.1944 17 8.5 17C3.80558 17 0 13.1944 0 8.5C0 3.80558 3.80558 0 8.5 0C13.1944 0 17 3.80558 17 8.5Z" fill="#F72020"/>
<path fill-rule="evenodd" clip-rule="evenodd" d="M8.5 15.725C12.4903 15.725 15.725 12.4903 15.725 8.5C15.725 4.50974 12.4903 1.275 8.5 1.275C4.50974 1.275 1.275 4.50974 1.275 8.5C1.275 12.4903 4.50974 15.725 8.5 15.725ZM8.5 17C13.1944 17 17 13.1944 17 8.5C17 3.80558 13.1944 0 8.5 0C3.80558 0 0 3.80558 0 8.5C0 13.1944 3.80558 17 8.5 17Z" fill="white"/>
</svg>
