<svg width="32" height="20" viewBox="0 0 32 20" fill="none" xmlns="http://www.w3.org/2000/svg">
<path d="M19.732 2.85254H11.332V17.9476H19.732V2.85254Z" fill="#FF5F00"/>
<path d="M11.8659 10.4C11.8646 8.94629 12.194 7.51128 12.8292 6.20366C13.4645 4.89603 14.3889 3.75008 15.5325 2.85253C14.1163 1.73937 12.4155 1.04711 10.6245 0.854877C8.83345 0.662644 7.02447 0.978188 5.4043 1.76546C3.78413 2.55272 2.41814 3.77995 1.46247 5.30685C0.506793 6.83376 0 8.59873 0 10.4C0 12.2014 0.506793 13.9663 1.46247 15.4932C2.41814 17.0201 3.78413 18.2474 5.4043 19.0346C7.02447 19.8219 8.83345 20.1375 10.6245 19.9452C12.4155 19.753 14.1163 19.0607 15.5325 17.9476C14.3889 17.05 13.4645 15.9041 12.8293 14.5964C12.194 13.2888 11.8646 11.8538 11.8659 10.4Z" fill="#EB001B"/>
<path d="M31.0633 10.4C31.0634 12.2013 30.5566 13.9663 29.601 15.4932C28.6454 17.0201 27.2794 18.2473 25.6593 19.0346C24.0392 19.8219 22.2302 20.1374 20.4392 19.9452C18.6482 19.753 16.9474 19.0607 15.5312 17.9476C16.6739 17.0491 17.5976 15.903 18.2327 14.5956C18.8678 13.2881 19.1979 11.8536 19.1979 10.4C19.1979 8.94652 18.8678 7.51195 18.2327 6.20454C17.5976 4.89712 16.6739 3.75098 15.5312 2.85253C16.9474 1.73936 18.6482 1.0471 20.4392 0.854875C22.2302 0.662644 24.0392 0.978202 25.6593 1.76548C27.2794 2.55275 28.6454 3.77998 29.601 5.30688C30.5566 6.83379 31.0634 8.59875 31.0633 10.4Z" fill="#F79E1B"/>
<path d="M30.1498 16.3487V16.0396H30.2744V15.9767H29.957V16.0396H30.0817V16.3487H30.1498ZM30.7659 16.3487V15.9761H30.6686L30.5567 16.2324L30.4448 15.9761H30.3475V16.3487H30.4162V16.0676L30.5211 16.3099H30.5923L30.6973 16.067V16.3487H30.7659Z" fill="#F79E1B"/>
</svg>
