<svg width="95" height="90" viewBox="0 0 95 90" fill="none" xmlns="http://www.w3.org/2000/svg">
<path d="M44.5831 13.125L7.10496 28.7119C6.63786 28.9061 6.3335 29.3623 6.3335 29.8682C6.3335 30.5599 6.89421 31.1206 7.58589 31.1206H65.2339C66.9188 31.1206 67.8802 29.1967 66.8686 27.8493L62.5707 25.6434L60.2264 24.3199L59.2217 21.9485L57.4914 20.0735L55.7053 20.5699L53.5284 19.9081L52.5078 18.4796C52.2958 18.1828 52.0519 17.9101 51.7806 17.6664L50.3469 16.3787L50.012 14.1728L49.8483 14.0255C48.414 12.7344 46.3649 12.3839 44.5831 13.125Z" fill="#990000"/>
<path d="M13.9336 35.2965C13.9336 34.374 14.6814 33.6261 15.6039 33.6261H47.5003H64.2836H66.6954C67.2962 33.6261 67.7656 34.1448 67.7058 34.7426L68.3198 35.2941L69.0454 35.3493L69.3245 36.2868C69.6209 36.4992 69.4706 36.9668 69.106 36.9668H15.6039C14.6814 36.9668 13.9336 36.219 13.9336 35.2965Z" fill="#990000"/>
<path d="M22.1147 39.4723H18.4184C17.3328 39.4723 16.4454 40.3383 16.419 41.4236L15.672 72.083C15.6446 73.2063 16.5477 74.1317 17.6714 74.1317H22.8616C23.9853 74.1317 24.8884 73.2063 24.861 72.083L24.1141 41.4236C24.0876 40.3383 23.2002 39.4723 22.1147 39.4723Z" fill="#990000"/>
<path d="M40.2704 39.4723H36.5741C35.4886 39.4723 34.6012 40.3383 34.5747 41.4236L33.8277 72.083C33.8004 73.2063 34.7035 74.1317 35.8272 74.1317H41.0174C42.141 74.1317 43.0442 73.2063 43.0168 72.083L42.2698 41.4236C42.2434 40.3383 41.356 39.4723 40.2704 39.4723Z" fill="#990000"/>
<path d="M58.4257 39.4723H54.7294C53.6438 39.4723 52.7564 40.3383 52.73 41.4236L51.983 72.083C51.9557 73.2063 52.8588 74.1317 53.9824 74.1317H59.1727C60.2963 74.1317 61.1994 73.2063 61.1721 72.083L60.4251 41.4236C60.3986 40.3383 59.5113 39.4723 58.4257 39.4723Z" fill="#990000"/>
<path d="M79.3289 70.3925L81.2008 51.7504C81.256 51.2008 80.6959 50.7972 80.192 51.0235C80.129 51.0518 80.0622 51.0709 79.9937 51.0801L78.869 51.2316L78.1992 50.2941L77.1945 49.6324L75.8549 49.2463L75.3525 47.8677C74.7072 47.6648 74.0331 48.0855 73.9318 48.7543L70.8173 69.3213C70.4307 71.8748 72.3709 74.1887 74.9526 74.2531C77.1967 74.3091 79.1046 72.626 79.3289 70.3925Z" fill="#990000"/>
<path d="M0 87.2418V89C0 89.5523 0.447714 90 0.999999 90H94C94.5523 90 95 89.5523 95 89V87.2418C95 86.6895 94.5523 86.2418 94 86.2418H91.7778C91.2255 86.2418 90.7778 85.794 90.7778 85.2418V81.3956C90.7778 80.8433 90.3301 80.3956 89.7778 80.3956H85.8667C85.3144 80.3956 84.8667 79.9479 84.8667 79.3956V77.6373C84.8667 77.085 84.419 76.6373 83.8667 76.6373H11.1333C10.581 76.6373 10.1333 77.085 10.1333 77.6373V79.3956C10.1333 79.9479 9.68562 80.3956 9.13334 80.3956H5.22222C4.66994 80.3956 4.22222 80.8433 4.22222 81.3956V85.2418C4.22222 85.794 3.77451 86.2418 3.22222 86.2418H1C0.447715 86.2418 0 86.6895 0 87.2418Z" fill="#990000"/>
<path d="M51.2397 12.4444L49.1187 10.5694C51.262 0.863565 58.7377 1.01064 62.2356 2.24226C61.1565 2.95917 59.2661 5.41873 60.3378 9.52168C61.4095 13.6246 59.3703 16.893 58.2168 18.0143L56.319 18.5658L54.5329 17.9592L53.2491 16.0842L51.5746 14.6503L51.2397 12.4444Z" fill="#990000"/>
<path d="M62.1798 9.76103C63.43 14.4816 61.082 18.125 59.8354 19.136L61.4541 20.9559L62.2914 23.1066L68.5429 26.3051C76.1339 20.9007 75.0734 13.9049 70.9988 11.0294C67.0916 8.27206 68.7475 2.92279 69.2685 0C65.9753 1.04779 60.6169 3.86029 62.1798 9.76103Z" fill="#990000"/>
<path d="M77.6969 48.2537L76.6338 47.9228C73.229 40.0919 79.8526 36.636 83.2202 36.2868C82.4946 36.5625 80.5443 38.3475 81.769 42.6287C82.9995 46.9302 80.9317 49.0993 80.1503 49.5772L79.3131 49.6875L78.6433 48.8052L77.6969 48.2537Z" fill="#990000"/>
</svg>
