<svg width="63" height="100" viewBox="0 0 63 100" fill="none" xmlns="http://www.w3.org/2000/svg">
<path fill-rule="evenodd" clip-rule="evenodd" d="M27.7964 50.9837C27.7964 49.5851 28.9364 48.4514 30.3428 48.4514H37.1999C38.6063 48.4514 39.7463 49.5851 39.7463 50.9837V62.7894C39.7463 64.1879 38.6063 65.3216 37.1999 65.3216H30.3428C28.9364 65.3216 27.7964 64.1879 27.7964 62.7894V50.9837ZM30.3428 49.6495C29.6019 49.6495 29.0012 50.2469 29.0012 50.9837V62.7894C29.0012 63.5262 29.6019 64.1235 30.3428 64.1235H33.1689V49.6495H30.3428ZM34.3738 49.6495V64.1235H37.1999C37.9408 64.1235 38.5415 63.5262 38.5415 62.7894V50.9837C38.5415 50.2469 37.9408 49.6495 37.1999 49.6495H34.3738Z" fill="#990000"/>
<path fill-rule="evenodd" clip-rule="evenodd" d="M39.1605 57.527H28.3989V56.3295H39.1605V57.527Z" fill="#990000"/>
<path fill-rule="evenodd" clip-rule="evenodd" d="M21.2554 31.3633C21.2554 30.395 22.0447 29.61 23.0184 29.61H27.7659C28.7396 29.61 29.5289 30.395 29.5289 31.3633V39.5369C29.5289 40.5052 28.7396 41.2901 27.7659 41.2901H23.0184C22.0447 41.2901 21.2554 40.5052 21.2554 39.5369V31.3633ZM23.0184 30.4396C22.5054 30.4396 22.0895 30.8531 22.0895 31.3633V39.5369C22.0895 40.0471 22.5054 40.4606 23.0184 40.4606H24.975V30.4396H23.0184ZM25.8092 30.4396V40.4606H27.7659C28.2789 40.4606 28.6947 40.0471 28.6947 39.5369V31.3633C28.6947 30.8531 28.2789 30.4396 27.7659 30.4396H25.8092Z" fill="#990000"/>
<path fill-rule="evenodd" clip-rule="evenodd" d="M29.1231 35.8936H21.6724V35.0645H29.1231V35.8936Z" fill="#990000"/>
<path fill-rule="evenodd" clip-rule="evenodd" d="M10.7568 50.9837C10.7568 49.5851 11.8969 48.4514 13.3032 48.4514H20.1604C21.5667 48.4514 22.7068 49.5851 22.7068 50.9837V62.7894C22.7068 64.1879 21.5667 65.3216 20.1604 65.3216H13.3032C11.8969 65.3216 10.7568 64.1879 10.7568 62.7894V50.9837ZM13.3032 49.6495C12.5623 49.6495 11.9617 50.2469 11.9617 50.9837V62.7894C11.9617 63.5262 12.5623 64.1235 13.3032 64.1235H16.1294V49.6495H13.3032ZM17.3342 49.6495V64.1235H20.1604C20.9013 64.1235 21.5019 63.5262 21.5019 62.7894V50.9837C21.5019 50.2469 20.9013 49.6495 20.1604 49.6495H17.3342Z" fill="#990000"/>
<path fill-rule="evenodd" clip-rule="evenodd" d="M22.121 57.527H11.3594V56.3295H22.121V57.527Z" fill="#990000"/>
<path fill-rule="evenodd" clip-rule="evenodd" d="M10.7568 74.9143C10.7568 73.5158 11.8969 72.382 13.3032 72.382H20.1604C21.5667 72.382 22.7068 73.5158 22.7068 74.9143V86.72C22.7068 88.1186 21.5667 89.2523 20.1604 89.2523H13.3032C11.8969 89.2523 10.7568 88.1186 10.7568 86.72V74.9143ZM13.3032 73.5802C12.5623 73.5802 11.9617 74.1775 11.9617 74.9143V86.72C11.9617 87.4568 12.5623 88.0541 13.3032 88.0541H16.1294V73.5802H13.3032ZM17.3342 73.5802V88.0541H20.1604C20.9013 88.0541 21.5019 87.4568 21.5019 86.72V74.9143C21.5019 74.1775 20.9013 73.5802 20.1604 73.5802H17.3342Z" fill="#990000"/>
<path fill-rule="evenodd" clip-rule="evenodd" d="M22.121 81.4577H11.3594V80.2602H22.121V81.4577Z" fill="#990000"/>
<path fill-rule="evenodd" clip-rule="evenodd" d="M27.7964 74.9143C27.7964 73.5158 28.9364 72.382 30.3428 72.382H37.1999C38.6063 72.382 39.7463 73.5158 39.7463 74.9143V86.72C39.7463 88.1186 38.6063 89.2523 37.1999 89.2523H30.3428C28.9364 89.2523 27.7964 88.1186 27.7964 86.72V74.9143ZM30.3428 73.5802C29.6019 73.5802 29.0012 74.1775 29.0012 74.9143V86.72C29.0012 87.4568 29.6019 88.0541 30.3428 88.0541H33.1689V73.5802H30.3428ZM34.3738 73.5802V88.0541H37.1999C37.9408 88.0541 38.5415 87.4568 38.5415 86.72V74.9143C38.5415 74.1775 37.9408 73.5802 37.1999 73.5802H34.3738Z" fill="#990000"/>
<path fill-rule="evenodd" clip-rule="evenodd" d="M39.1605 81.4577H28.3989V80.2602H39.1605V81.4577Z" fill="#990000"/>
<path fill-rule="evenodd" clip-rule="evenodd" d="M27.5766 19.5459L26.4431 18.5797H19.8296C18.9496 18.5797 18.2559 19.3186 18.2914 20.1931C18.5764 27.2136 17.6009 37.1328 8.80151 39.9109C7.98452 40.1688 7.44643 40.9873 7.57245 41.8305C8.3086 46.7555 7.7386 54.9291 0.947586 58.2652C0.388092 58.54 0 59.0903 0 59.7109V98.4885C0 99.3233 0.680506 100 1.51995 100H49.4481C50.2875 100 50.9681 99.3233 50.9681 98.4885V59.7561C50.9681 59.1132 50.5568 58.5498 49.9707 58.2784C47.4991 57.1338 44.5371 54.695 43.2697 50.3982L41.8506 48.01L39.6086 46.4493L36.2456 44.4427L32.9573 40.8754L33.4057 37.6797C33.1053 36.8933 32.7526 35.2544 32.5045 34.1014L32.5045 34.1013L32.5045 34.1012L32.5044 34.1008C32.3617 33.4379 32.2537 32.9358 32.21 32.8489C32.1838 32.7968 32.0985 32.6617 31.9763 32.4681L31.976 32.4676L31.976 32.4676L31.9759 32.4674C31.5403 31.7772 30.6364 30.3453 30.267 29.2816C30.1175 28.5137 29.3702 27.498 29.3702 27.498C29.3702 27.498 29.8933 25.863 30.0428 25.1941L29.3702 23.8564L28.1744 22.147L27.5766 19.5459ZM33.9207 72.9811H30.4921C29.4185 72.9811 28.5481 73.8466 28.5481 74.9143V77.7698V83.2115V86.72C28.5481 87.7877 29.4185 88.6532 30.4921 88.6532H33.9207H37.3492C38.4229 88.6532 39.2932 87.7877 39.2932 86.72V83.2115V77.7698V74.9143C39.2932 73.8466 38.4229 72.9811 37.3492 72.9811H33.9207ZM30.4921 49.0505H33.9206H37.3492C38.4228 49.0505 39.2932 49.916 39.2932 50.9837V53.8391V59.2808V62.7893C39.2932 63.857 38.4228 64.7225 37.3492 64.7225H33.9206H30.4921C29.4184 64.7225 28.5481 63.857 28.5481 62.7893V59.2808V53.8391V50.9837C28.5481 49.916 29.4184 49.0505 30.4921 49.0505ZM25.4146 29.8762H23.0266C22.2788 29.8762 21.6726 30.479 21.6726 31.2227V33.2115V37.0017V39.4454C21.6726 40.189 22.2788 40.7919 23.0266 40.7919H25.4146H27.8026C28.5504 40.7919 29.1566 40.189 29.1566 39.4454V37.0017V33.2115V31.2227C29.1566 30.479 28.5504 29.8762 27.8026 29.8762H25.4146ZM13.4529 72.9811H16.8815H20.3101C21.3837 72.9811 22.254 73.8466 22.254 74.9143V77.7698V83.2115V86.72C22.254 87.7877 21.3837 88.6532 20.3101 88.6532H16.8815H13.4529C12.3793 88.6532 11.509 87.7877 11.509 86.72V83.2115V77.7698V74.9143C11.509 73.8466 12.3793 72.9811 13.4529 72.9811ZM16.8815 49.0505H13.4529C12.3793 49.0505 11.509 49.916 11.509 50.9837V53.8392V59.2809V62.7894C11.509 63.857 12.3793 64.7226 13.4529 64.7226H16.8815H20.3101C21.3837 64.7226 22.254 63.857 22.254 62.7894V59.2809V53.8392V50.9837C22.254 49.916 21.3837 49.0505 20.3101 49.0505H16.8815Z" fill="#990000"/>
<path d="M31.7616 22.4443L30.7901 21.0322L30.3417 19.0999L29.2954 18.2081C41.9253 20.512 47.7296 7.50621 49.6228 0C49.0417 2.30388 48.4421 9.72091 54.4805 22.4443C60.5189 35.1677 51.1673 45.4832 45.7367 49.0505L44.1673 46.375L41.5517 44.74L38.2634 42.659L35.6477 39.9092L36.0961 36.9365L34.6015 31.6598L32.5837 28.5384L31.9111 26.9778L32.5837 24.005L31.7616 22.4443Z" fill="#990000"/>
<path d="M53.1354 56.7053C49.7724 55.5905 47.381 52.6177 47.082 51.28C57.4699 45.1115 59.0393 35.4501 58.6657 30.0248C68.381 44.517 59.6372 54.2528 53.1354 56.7053Z" fill="#990000"/>
</svg>
