<svg width="27" height="22" viewBox="0 0 27 22" fill="none" xmlns="http://www.w3.org/2000/svg">
<path d="M15.9835 12.5999H1.35514C0.468567 15.3999 0.690209 20.9999 8.66932 20.9999C16.6484 20.9999 16.8701 15.3999 15.9835 12.5999Z" stroke="#DADADA" stroke-linejoin="round"/>
<path d="M15.8115 20.2621C16.5354 21 18.4789 21 18.9604 21C25.4887 21 26.5262 16.3333 25.8009 14H17.9321" stroke="#DADADA" stroke-linejoin="round"/>
<path d="M13.05 4.90001C13.05 7.33196 11.0869 9.30003 8.66954 9.30003C6.25215 9.30003 4.28906 7.33196 4.28906 4.90001C4.28906 2.46807 6.25215 0.5 8.66954 0.5C11.0869 0.5 13.05 2.46807 13.05 4.90001Z" stroke="#DADADA"/>
<path d="M22.811 7.69996C22.811 9.35871 21.4722 10.7 19.8249 10.7C18.1777 10.7 16.8389 9.35871 16.8389 7.69996C16.8389 6.04122 18.1777 4.69995 19.8249 4.69995C21.4722 4.69995 22.811 6.04122 22.811 7.69996Z" stroke="#DADADA"/>
</svg>
