<svg width="31" height="26" viewBox="0 0 31 26" fill="none" xmlns="http://www.w3.org/2000/svg">
<path d="M28.6937 1C29.5874 1 30.2615 1.77328 29.9009 3.21159L25.5267 23.5489C25.221 24.9949 24.3352 25.3429 23.1123 24.6702L12.6784 17.0688C12.638 17.0402 12.605 17.0024 12.5823 16.9587C12.5595 16.915 12.5477 16.8666 12.5477 16.8175C12.5477 16.7684 12.5595 16.7199 12.5823 16.6762C12.605 16.6325 12.638 16.5948 12.6784 16.5662L22.8843 7.76082L8.76671 14.9655C8.72085 14.995 8.66878 15.0138 8.61445 15.0205C8.56012 15.0272 8.50495 15.0216 8.45314 15.0041L2.03292 13.0013C0.606201 12.5915 0.606201 11.6249 2.35432 10.9367L28.0431 1.16239C28.2468 1.06598 28.468 1.01076 28.6937 1Z" stroke="#9F9F9F" stroke-width="2" stroke-linecap="round" stroke-linejoin="round"/>
</svg>
