<svg width="31" height="26" viewBox="0 0 31 26" fill="none" xmlns="http://www.w3.org/2000/svg">
<path d="M30 1.01345C30 1.01345 27.3399 2.60777 25.8609 3.05985C25.067 2.13364 24.0119 1.47716 22.8384 1.1792C21.6648 0.88125 20.4293 0.956198 19.2991 1.39391C18.1689 1.83162 17.1984 2.61098 16.5189 3.62658C15.8395 4.64218 15.4838 5.84501 15.5 7.07241V8.40992C13.1835 8.47087 10.888 7.94957 8.81815 6.89244C6.74825 5.83531 4.87401 4.40907 3.54223 2.48487C3.54223 2.48487 -1.63636 14.3886 10.2273 19.7387C7.51251 21.6085 4.27853 22.5461 1 22.4137C12.8636 29.1013 27.3636 22.4137 27.3636 7.03228C27.3636 6.66045 27.3267 6.28862 27.2582 5.92214C28.6027 4.5766 30 1.01345 30 1.01345Z" stroke="#9F9F9F" stroke-width="2" stroke-linecap="round" stroke-linejoin="round"/>
</svg>
