<svg width="30" height="30" viewBox="0 0 30 30" fill="none" xmlns="http://www.w3.org/2000/svg">
<path d="M15 0C23.2839 0 30 6.7161 30 15C30 23.2839 23.2836 30 15 30C6.7164 30 0 23.2857 0 15C0 6.7143 6.7152 0 15 0Z" fill="#9ABE57"/>
<path d="M16.8513 13.0014V10.77H21.954V7.37012H8.05918V10.77H13.1625V12.9996C9.01498 13.1901 5.89648 14.0115 5.89648 14.9955C5.89648 15.9795 9.01648 16.8009 13.1625 16.9926V24.1401H16.8525V16.992C20.9925 16.8009 24.1047 15.9801 24.1047 14.997C24.1047 14.0139 20.9925 13.1931 16.8525 13.002L16.8513 13.0014ZM16.8525 16.3866V16.3848C16.7484 16.3914 16.2135 16.4235 15.0225 16.4235C14.0703 16.4235 13.4004 16.3965 13.1643 16.3842V16.3872C9.50008 16.2249 6.76498 15.5868 6.76498 14.8233C6.76498 14.0598 9.50038 13.4226 13.1643 13.26V15.7515C13.4043 15.768 14.0907 15.8085 15.0381 15.8085C16.176 15.8085 16.7481 15.7611 16.8531 15.7515V13.26C20.5101 13.4229 23.2389 14.0616 23.2389 14.8224C23.2389 15.5832 20.5089 16.2222 16.8531 16.3851" fill="#BFE578"/>
</svg>
