<svg width="60" height="20" viewBox="0 0 60 20" fill="none" xmlns="http://www.w3.org/2000/svg">
<path d="M26.3767 19.4591H21.5476L24.5657 0.910538H29.3953L26.3767 19.4591ZM17.485 0.910538L12.8811 13.6684L12.3363 10.9211L12.3368 10.9221L10.7119 2.58062C10.7119 2.58062 10.5154 0.910538 8.42112 0.910538H0.810012L0.720703 1.22461C0.720703 1.22461 3.04819 1.70886 5.77212 3.34471L9.96766 19.4596H14.9992L22.6823 0.910538H17.485ZM55.4686 19.4591H59.9028L56.0367 0.910042H52.1547C50.3621 0.910042 49.9255 2.29235 49.9255 2.29235L42.7232 19.4591H47.7573L48.764 16.7039H54.903L55.4686 19.4591ZM50.1547 12.8978L52.6921 5.95651L54.1195 12.8978H50.1547ZM43.1008 5.37104L43.79 1.38785C43.79 1.38785 41.6634 0.579102 39.4466 0.579102C37.0501 0.579102 31.3591 1.6265 31.3591 6.71961C31.3591 11.5115 38.0385 11.5711 38.0385 14.0881C38.0385 16.6052 32.0473 16.1541 30.0701 14.5669L29.3522 18.7317C29.3522 18.7317 31.5085 19.7791 34.803 19.7791C38.0985 19.7791 43.07 18.0728 43.07 13.4287C43.07 8.60602 36.3307 8.15699 36.3307 6.06021C36.3312 3.96293 41.0343 4.23234 43.1008 5.37104Z" fill="#2566AF"/>
<path d="M12.3369 10.9217L10.712 2.58024C10.712 2.58024 10.5155 0.910156 8.4212 0.910156H0.810013L0.720703 1.22423C0.720703 1.22423 4.37894 1.98236 7.88783 4.82289C11.2429 7.53789 12.3369 10.9217 12.3369 10.9217Z" fill="#E6A540"/>
</svg>
