<svg width="67" height="78" viewBox="0 0 67 78" fill="none" xmlns="http://www.w3.org/2000/svg">
<path fill-rule="evenodd" clip-rule="evenodd" d="M39.225 74.5821L56.9042 56.9029C61.5658 52.2411 64.7403 46.3017 66.0263 39.8357C67.3124 33.3697 66.6521 26.6676 64.1292 20.5768C61.6062 14.4861 57.3338 9.2802 51.8522 5.61756C46.3706 1.95492 39.926 0 33.3334 0C26.7407 0 20.2961 1.95492 14.8145 5.61756C9.33292 9.2802 5.0605 14.4861 2.53753 20.5768C0.0145567 26.6676 -0.645655 33.3697 0.64038 39.8357C1.92641 46.3017 5.10094 52.2411 9.76252 56.9029L27.4459 74.5821C29.0084 76.1431 31.1268 77.0199 33.3354 77.0199C35.5441 77.0199 37.6625 76.1431 39.225 74.5821ZM44.966 15.701C43.9956 15.2996 42.9557 15.0933 41.9056 15.0938H41.9048C39.725 15.094 37.7212 15.922 36.258 17.3783L36.2556 17.3806L28.7556 24.8806L21.2556 32.3806C20.9919 32.6444 20.8437 33.002 20.8437 33.375V42.1675L17.5056 45.5056C16.9565 46.0548 16.9565 46.9452 17.5056 47.4944C18.0548 48.0435 18.9452 48.0435 19.4944 47.4944L22.8325 44.1562H31.625C31.998 44.1562 32.3556 44.0081 32.6194 43.7444L40.1194 36.2444L47.6178 28.7459L47.6184 28.7453C49.0916 27.2764 49.9062 25.2646 49.9062 23.0888V23.0884C49.906 22.038 49.6987 20.998 49.2964 20.0277C48.8941 19.0575 48.3046 18.176 47.5616 17.4336C46.8186 16.6912 45.9366 16.1024 44.966 15.701ZM31.0425 41.3438H25.645L30.3325 36.6562H35.73L31.0425 41.3438ZM23.6562 39.355L28.3437 34.6675V29.27L23.6562 33.9575V39.355ZM43.23 29.1562L38.5425 33.8438H33.145L37.8325 29.1562H43.23ZM45.9991 26.3438H38.6562L47.0937 23.0892C47.0937 24.3469 46.6937 25.4712 45.9991 26.3438ZM38.6562 19.0036V26.3438L47.0937 23.0888C47.0935 22.4079 46.9592 21.7338 46.6984 21.1049C46.4376 20.4759 46.0554 19.9044 45.5737 19.4232C45.092 18.9419 44.5202 18.5602 43.891 18.2999C43.2617 18.0396 42.5874 17.9059 41.9064 17.9062L41.9056 17.9063C40.6553 17.9063 39.5321 18.3097 38.6562 19.0036ZM31.1562 26.4575L35.8437 21.77V27.1675L31.1562 31.855V26.4575Z" fill="#CAD1D9"/>
</svg>
