<svg width="394" height="114" viewBox="0 0 394 114" fill="none" xmlns="http://www.w3.org/2000/svg">
<g clip-path="url(#clip0_3415_20965)">
<path d="M158.735 32.8312C157.581 32.329 156.134 32.0398 153.307 32.0398H142.958V45.2131H152.728C155.695 45.2131 157.436 44.8502 158.812 44.2034C161.131 43.049 162.288 41.0103 162.288 38.2676C162.288 35.8005 160.981 33.8492 158.735 32.8312ZM156.208 13.0698C155.116 12.5676 153.815 12.2756 151.716 12.2756H142.958V24.7285H151.211C153.815 24.7285 155.408 24.2918 156.563 23.6368C158.449 22.5589 159.39 20.744 159.39 18.427C159.39 16.039 158.301 14.0877 156.208 13.0698ZM134.776 52.5981V4.89337H152.292C156.058 4.89337 158.514 5.47194 160.547 6.41075C165.394 8.73049 167.569 13.1434 167.569 17.1962C167.569 21.762 165.681 24.8677 161.846 27.1901V27.3348C167.345 28.5602 170.678 32.3945 170.678 38.1912C170.678 44.6318 166.772 49.5551 160.111 51.5856C157.72 52.3061 155.116 52.5981 150.987 52.5981H134.776Z" fill="#CBCBCB"/>
<path d="M226.592 4.89337H218.413V52.5981H226.592V4.89337Z" fill="#CBCBCB"/>
<path d="M285.975 4.89337H277.804V52.5981H285.975V4.89337Z" fill="#CBCBCB"/>
<path d="M312.396 4.45935C317.537 4.45935 322.75 5.6929 325.637 7.1366L325.501 14.9555C321.372 12.9305 317.172 11.6205 312.18 11.6205C307.699 11.6205 303.856 13.0042 303.856 16.7676C303.856 26.5378 328.402 22.6297 328.402 38.7669C328.402 47.6747 320.87 53.3103 309.934 53.3103C302.486 53.3103 297.345 51.2116 293.797 49.0529L297.192 42.3912C300.096 44.2033 304.732 46.1546 310.226 46.1546C315.152 46.1546 319.712 44.2661 319.712 39.9295C319.712 29.7145 295.391 34.2066 295.391 17.922C295.391 9.23255 302.333 4.45935 312.396 4.45935Z" fill="#CBCBCB"/>
<path d="M367.121 4.89337H375.3V52.5981H367.121V32.0398H343.954V52.5981H335.774V4.89337H343.954V24.4392H367.121V4.89337Z" fill="#CBCBCB"/>
<path d="M152.837 60.9764C158.047 60.9764 162.026 61.9971 166.087 63.7983L163.62 70.7493C161.303 69.6686 158.26 68.3668 153.71 68.3668C144.658 68.3668 139.017 76.0356 139.017 85.3718C139.017 94.79 144.295 102.456 153.71 102.456C158.26 102.456 161.303 101.16 163.62 100.063L166.087 107.022C162.026 108.826 158.047 109.838 152.837 109.838C138.572 109.838 130.398 99.8525 130.398 85.5192C130.398 72.1302 138.572 60.9764 152.837 60.9764Z" fill="#CBCBCB"/>
<path d="M331.811 60.9764C337.024 60.9764 341.003 61.9971 345.053 63.7983L342.597 70.7493C340.277 69.6686 337.234 68.3668 332.674 68.3668C323.624 68.3668 317.98 76.0356 317.98 85.3718C317.98 94.79 323.266 102.456 332.674 102.456C337.234 102.456 340.277 101.16 342.597 100.063L345.053 107.022C341.003 108.826 337.024 109.838 331.811 109.838C317.543 109.838 309.364 99.8525 309.364 85.5192C309.364 72.1302 317.543 60.9764 331.811 60.9764Z" fill="#CBCBCB"/>
<path d="M204.22 85.3691C204.22 74.9494 198.292 68.2904 190.252 68.2904C182.221 68.2904 176.279 74.9494 176.279 85.4428C176.279 95.8761 182.221 102.527 190.252 102.527C198.295 102.527 204.22 95.8762 204.22 85.3691ZM212.841 85.219C212.841 99.5604 203.715 109.836 190.255 109.836C176.651 109.836 167.672 99.9179 167.672 85.5929C167.672 71.2596 176.79 60.9764 190.255 60.9764C203.871 60.9764 212.841 70.8994 212.841 85.219Z" fill="#CBCBCB"/>
<path d="M218.372 91.1575V61.413H226.551V91.4523C226.551 99.4076 230.825 102.382 237.626 102.382C244.577 102.382 248.706 99.4076 248.706 91.4523V61.413H256.885V91.1575C256.885 104.121 249.495 109.835 237.489 109.835C225.683 109.835 218.372 104.121 218.372 91.1575Z" fill="#CBCBCB"/>
<path d="M272.258 74.3762H272.113C272.258 75.9619 272.329 78.4972 272.329 80.746V109.112H264.149V61.4185H272.984L295.122 93.9166H295.272C295.122 92.3228 295.057 89.7875 295.057 87.5387V61.4185H303.23V109.112H295.998L272.258 74.3762Z" fill="#CBCBCB"/>
<path d="M359.647 61.413H351.481V109.118H359.647V61.413Z" fill="#CBCBCB"/>
<path d="M375.3 101.727H393.973V109.118H367.121V61.413H375.3V101.727Z" fill="#CBCBCB"/>
<path d="M232.828 4.90149V12.3574H248.095V52.598H256.274V12.3574H271.549V4.90149H232.828Z" fill="#CBCBCB"/>
<path d="M192.914 12.2837H184.443V26.7643H192.549C198.416 26.7643 201.164 23.7214 201.164 19.3767C201.164 15.4686 198.632 12.2837 192.914 12.2837ZM203.692 52.598C196.749 38.1993 194.937 34.1411 192.041 34.1411H184.443V52.598H176.27V4.90424H192.404C204.704 4.90424 209.415 11.4186 209.415 18.6535C209.415 25.0232 205.725 29.2942 200.583 30.8771V30.9563C202.75 32.1898 205.064 36.6765 213.028 52.598H203.692Z" fill="#CBCBCB"/>
<path d="M54.563 27.8095C54.563 42.8769 42.3475 55.0924 27.2801 55.0924C12.2155 55.0924 0 42.8769 0 27.8095C0 12.7421 12.2155 0.526672 27.2801 0.526672C42.3475 0.529401 54.563 12.7421 54.563 27.8095Z" fill="white"/>
<path d="M112.948 27.8096C112.948 42.877 100.732 55.0924 85.6649 55.0924C70.6002 55.0924 58.3848 42.877 58.3848 27.8096C58.3848 12.7422 70.6002 0.526733 85.6649 0.526733C100.732 0.529463 112.948 12.7422 112.948 27.8096Z" fill="white"/>
<path d="M54.563 86.1933C54.563 101.263 42.3475 113.473 27.2801 113.473C12.2155 113.473 0 101.263 0 86.1933C0 71.1231 12.2155 58.9131 27.2801 58.9131C42.3475 58.9131 54.563 71.1231 54.563 86.1933Z" fill="white"/>
<path d="M112.948 86.1933C112.948 101.263 100.732 113.473 85.6649 113.473C70.6002 113.473 58.3848 101.263 58.3848 86.1933C58.3848 71.1231 70.6002 58.9131 85.6649 58.9131C100.732 58.9131 112.948 71.1231 112.948 86.1933Z" fill="white"/>
</g>
<defs>
<clipPath id="clip0_3415_20965">
<rect width="394" height="112.947" fill="white" transform="translate(0 0.526672)"/>
</clipPath>
</defs>
</svg>
