<svg width="402" height="308" viewBox="0 0 402 308" fill="none" xmlns="http://www.w3.org/2000/svg">
<path d="M256.7 67.4534L258.8 19.3534H251.2L248 97.0534L259.7 96.9534C259.7 96.9534 275.5 95.5534 275.5 81.7534C275.4 71.6534 263.6 67.7534 256.7 67.4534ZM255.7 91.1534L256.6 73.1534C260.5 72.9534 267.8 73.0534 267.8 82.4534C267.8 89.1534 259.3 91.3534 255.7 91.1534Z" fill="white"/>
<path d="M233.1 39.4534L240.4 38.5534C240.4 38.5534 243.2 18.1535 228.8 18.6535C214.4 19.1535 209.9 38.5534 210 58.7534C210.1 78.9534 211.9 98.3535 227 97.9535C242.1 97.5535 238.9 77.7534 238.9 77.7534L231.3 78.5534C231.3 78.5534 234.4 90.2534 227.5 90.2534C219.3 90.2534 216.8 79.9534 217.5 59.2534C218.2 38.2534 219.1 26.0534 228.8 26.0534C234.2 26.0534 233.1 39.4534 233.1 39.4534Z" fill="white"/>
<path d="M68.6 77.3535C65 67.1535 55.4 67.0535 49.8 68.4535L50.4 52.4535C71.2 50.1535 72.5 21.0535 72.5 21.0535H64.9C64.9 43.0535 54.1 46.4535 50.7 46.4535L51.4 21.0535H43.6L41.5 96.9535H49.4L49.9 74.0535C66.3 68.6535 64.5 96.7535 64.5 96.7535H71.9C71.9 96.9535 73.1 90.0535 68.6 77.3535Z" fill="white"/>
<path d="M29.9994 183.153C26.3994 172.953 16.7994 172.853 11.1994 174.253L11.7994 158.253C33.9994 155.753 34.7994 125.753 34.7994 125.753H27.1994C27.1994 147.753 15.4994 152.253 12.0994 152.253L12.7994 125.853H4.99941L2.89941 202.853H10.7994L11.2994 179.953C27.6994 174.553 25.8994 202.653 25.8994 202.653H33.2994C33.1994 202.753 34.3994 195.853 29.9994 183.153Z" fill="white"/>
<path d="M307.499 77.3535C303.899 67.1535 294.299 67.0535 288.699 68.4535L289.299 52.4535C310.099 50.1535 311.399 21.0535 311.399 21.0535H303.799C303.799 43.0535 292.999 46.4535 289.599 46.4535L290.299 21.0535H282.499L280.399 96.9535H288.299L288.799 74.0535C305.199 68.6535 303.399 96.7535 303.399 96.7535H310.799C310.799 96.9535 311.999 90.0535 307.499 77.3535Z" fill="white"/>
<path d="M84.8002 97.3534L77.7002 97.4534L79.9002 22.2534H87.4002L84.8002 97.3534Z" fill="white"/>
<path d="M84.8998 52.9535C84.8998 52.9535 108.4 53.3535 108.4 35.9535C108.4 25.3535 95.5998 22.5535 87.1998 21.7535C82.9998 21.4535 79.8998 21.5535 79.8998 21.5535L79.7998 27.4535L86.8998 27.2535C86.8998 27.2535 101 25.2535 101 36.1535C101 42.6535 94.2998 46.9535 85.1998 46.9535L84.8998 52.9535Z" fill="white"/>
<path d="M233.7 202.454H226.6L228.8 127.354H236.2L233.7 202.454Z" fill="white"/>
<path d="M233.799 158.053C233.799 158.053 257.299 158.453 257.299 141.053C257.299 130.453 244.499 127.653 236.099 126.853C231.899 126.553 228.799 126.653 228.799 126.653L228.699 132.553L235.799 132.353C235.799 132.353 249.899 130.353 249.899 141.253C249.899 147.753 243.199 152.053 234.099 152.053L233.799 158.053Z" fill="white"/>
<path d="M153.1 96.8534H145.5L148.5 21.1534H156.2L153.1 96.8534Z" fill="white"/>
<path d="M160.2 0.353448C157.2 1.15345 154.6 3.15344 154.6 7.55344C154.6 14.3534 160.1 16.1535 163.4 16.6535C164.6 16.8535 164.9 16.7534 164.9 16.7534C165.5 16.6534 166 16.6534 166.6 16.4534C169.3 15.5534 171.5 13.6535 171.5 9.65345C171.6 -0.246549 160.2 0.353448 160.2 0.353448ZM164.5 11.2534C164.4 11.2534 164.3 11.3534 164.2 11.3534C163.9 11.4534 163.6 11.4534 163.3 11.4534C161.3 11.3534 159.9 10.7534 159.9 8.05344C159.9 6.75344 160.7 5.75344 161.8 5.55344C164.5 5.55344 166.4 5.85345 166.4 8.95345C166.3 10.2534 165.4 10.9534 164.5 11.2534Z" fill="white"/>
<path d="M138.499 0.353448C135.499 1.15345 132.899 3.15344 132.899 7.55344C132.899 14.3534 138.399 16.1535 141.699 16.6535C142.899 16.8535 143.199 16.7534 143.199 16.7534C143.799 16.6534 144.299 16.6534 144.899 16.4534C147.599 15.5534 149.799 13.6535 149.799 9.65345C149.899 -0.246549 138.499 0.353448 138.499 0.353448ZM142.799 11.2534C142.699 11.2534 142.599 11.3534 142.499 11.3534C142.199 11.4534 141.899 11.4534 141.599 11.4534C139.599 11.3534 138.199 10.7534 138.199 8.05344C138.199 6.75344 138.999 5.75344 140.099 5.55344C142.799 5.55344 144.699 5.85345 144.699 8.95345C144.699 10.2534 143.799 10.9534 142.799 11.2534Z" fill="white"/>
<path d="M14.6 77.9535C10.3 79.0535 6.5 81.9535 6.5 88.2535C6.5 97.9535 14.4 100.554 19.2 101.254C20.9 101.454 21.3 101.454 21.4 101.454C22.2 101.254 23 101.254 23.8 101.054C27.6 99.7535 30.9 96.9535 30.9 91.2535C30.9 77.0535 14.6 77.9535 14.6 77.9535ZM21 94.2535C20.8 94.3535 20.7 94.3535 20.5 94.4535C20 94.5535 19.4 94.5535 19 94.5535C15.7 94.3535 13.4 93.3535 13.4 88.9535C13.4 86.7535 14.8 85.1535 16.5 84.8535C20.9 84.8535 24.1 85.3535 24.1 90.4535C24.1 92.5535 22.6 93.6535 21 94.2535Z" fill="white"/>
<path d="M27 21.0535L27.4 39.5535C27.4 45.2535 27.3 49.0535 26.9 53.2535C26.3 60.5535 25.4 69.0535 18.8 69.0535C12.2 69.0535 11.3 58.4535 10.6 53.2535C10.3 51.1535 9.9 48.0535 9.9 39.3535C9.9 30.6535 10.6 21.0535 10.6 21.0535H3.1C3.1 21.0535 2.5 32.7535 2.5 39.2535C2.5 45.6535 2.9 50.1535 3.1 53.1535C4.2 67.0535 7.3 74.7535 18.9 74.7535C29.5 74.7535 33.4 67.2535 34.6 53.0535C35 48.2535 35 44.7535 35 39.4535L34.6 21.2535L27 21.0535Z" fill="white"/>
<path d="M55.6996 182.753C51.3996 183.853 47.5996 186.753 47.5996 193.053C47.5996 202.753 55.4996 205.353 60.2996 206.053C61.9996 206.253 62.3996 206.253 62.4996 206.253C63.2996 206.053 64.0996 206.053 64.8996 205.853C68.6996 204.553 71.9996 201.753 71.9996 196.053C72.0996 181.853 55.6996 182.753 55.6996 182.753ZM62.0996 199.053C61.8996 199.153 61.7996 199.153 61.5996 199.253C61.0996 199.353 60.4996 199.353 60.0996 199.353C56.7996 199.153 54.4996 198.153 54.4996 193.753C54.4996 191.553 55.8996 189.953 57.5996 189.653C61.9996 189.653 65.1996 190.153 65.1996 195.253C65.1996 197.353 63.7996 198.453 62.0996 199.053Z" fill="white"/>
<path d="M68.0996 125.853L68.4996 144.353C68.4996 150.053 68.3996 153.853 67.9996 158.053C67.3996 165.353 66.4996 173.853 59.8996 173.853C53.2996 173.853 52.3996 163.253 51.6996 158.053C51.3996 155.953 50.9996 152.853 50.9996 144.153C50.9996 135.553 51.6996 125.853 51.6996 125.853H44.1996C44.1996 125.853 43.5996 137.553 43.5996 144.053C43.5996 150.453 43.9996 154.953 44.1996 157.953C45.2996 171.853 48.3996 179.553 59.9996 179.553C70.5996 179.553 74.4996 172.053 75.6996 157.853C76.0996 153.053 76.0996 149.553 76.0996 144.253L75.5996 125.953L68.0996 125.853Z" fill="white"/>
<path d="M198.201 183.253C193.901 184.353 190.101 187.253 190.101 193.553C190.101 203.253 198.001 205.853 202.801 206.553C204.501 206.753 204.901 206.753 205.001 206.753C205.801 206.553 206.601 206.553 207.401 206.353C211.201 205.053 214.501 202.253 214.501 196.553C214.601 182.453 198.201 183.253 198.201 183.253ZM204.701 199.553C204.501 199.653 204.401 199.653 204.201 199.753C203.701 199.853 203.101 199.853 202.701 199.853C199.401 199.653 197.101 198.653 197.101 194.253C197.101 192.053 198.501 190.453 200.201 190.153C204.601 190.153 207.801 190.653 207.801 195.753C207.701 197.953 206.301 198.953 204.701 199.553Z" fill="white"/>
<path d="M210.7 126.453L211.1 144.953C211.1 150.653 211 154.453 210.6 158.653C210 165.953 209.1 174.453 202.5 174.453C195.9 174.453 195 163.853 194.3 158.653C194 156.553 193.6 153.453 193.6 144.753C193.6 136.053 194.3 126.453 194.3 126.453H186.8C186.8 126.453 186.2 138.153 186.2 144.653C186.2 151.053 186.6 155.553 186.8 158.553C187.9 172.453 191 180.153 202.6 180.153C213.2 180.153 217.1 172.653 218.3 158.453C218.7 153.653 218.7 150.153 218.7 144.853L218.2 126.553L210.7 126.453Z" fill="white"/>
<path d="M349.4 21.1534L328 80.0534L330.3 21.1534H322.8L320.2 96.8534H327.9L349.9 34.6534L348.4 96.8534H355.8L356.9 21.1534H349.4Z" fill="white"/>
<path d="M335.3 126.853L313.9 185.753L316.2 126.853H308.8L306.1 202.553H313.8L335.9 140.253L334.4 202.453L341.7 202.553L342.8 126.853H335.3Z" fill="white"/>
<path d="M128.3 126.553L121.2 126.053L118.1 201.153L125.5 201.753L128.3 126.553Z" fill="white"/>
<path d="M125.2 170.854C125.2 170.854 148.7 172.154 147.4 189.454C146.6 200.054 133.7 201.954 125.3 202.054C121.1 202.154 118 201.754 118 201.754L118.3 195.854L125.4 196.554C125.4 196.554 139.3 199.554 140.1 188.654C140.6 182.154 134.1 177.354 125.1 176.754L125.2 170.854Z" fill="white"/>
<path d="M164.7 202.053H157.8L159.6 126.453H166.6L164.7 202.053Z" fill="white"/>
<path d="M146.499 126.453L178.399 125.853V131.653L146.399 132.153L146.499 126.453Z" fill="white"/>
<path d="M84.2996 266.753C84.2996 261.753 84.0996 257.953 83.7996 255.053V254.253C83.7996 253.853 83.6996 253.353 83.6996 252.953C82.5996 239.153 79.4996 231.553 68.0996 231.553C57.5996 231.553 53.6996 238.953 52.4996 253.053C52.0996 257.853 52.0996 261.253 52.0996 266.553V268.353C52.0996 269.753 52.0996 271.053 52.0996 272.153C52.0996 277.153 52.2996 280.953 52.5996 283.853V284.653C52.5996 285.053 52.6996 285.553 52.6996 285.953C53.7996 299.753 56.8996 307.353 68.2996 307.353C78.7996 307.353 82.6996 299.953 83.8996 285.853C84.2996 281.053 84.2996 277.653 84.2996 272.353V270.553C84.2996 269.253 84.2996 267.953 84.2996 266.753ZM68.1996 299.853C61.6996 299.853 60.6996 291.253 60.0996 286.053C60.0996 285.853 59.5996 277.353 59.5996 268.953C59.5996 260.953 59.9996 253.153 59.9996 252.953C60.5996 245.753 61.4996 239.153 67.9996 239.153C74.4996 239.153 75.4996 247.753 76.0996 252.953C76.0996 253.153 76.5996 261.253 76.5996 269.353C76.5996 277.553 76.1996 285.853 76.1996 286.053C75.5996 293.253 74.6996 299.853 68.1996 299.853Z" fill="white"/>
<path d="M113.9 67.0534L130.4 65.6534L131.3 71.2534L113.3 72.0534L113.9 67.0534Z" fill="white"/>
<path d="M138.4 97.3535L128.3 21.3535L120.5 20.5535L105.8 97.3535L112.2 97.2535L123 36.6535H123.7L130.3 97.1535L138.4 97.3535Z" fill="white"/>
<path d="M25.3 307.653H18L19 231.653H26.6L25.3 307.653Z" fill="white"/>
<path d="M7.89988 270.053C7.89988 266.053 6.09987 237.053 22.2999 242.053L22.1999 236.353C16.5999 235.053 8.09987 235.553 3.69987 245.353C-0.000129223 253.553 0.0998724 264.753 0.0998724 270.153C0.0998724 275.553 0.199871 285.253 3.69987 293.053C8.09987 302.853 16.5999 303.353 22.1999 302.053L22.2999 296.353C6.79987 301.053 7.89988 274.053 7.89988 270.053Z" fill="white"/>
<path d="M36.6998 270.053C36.6998 266.053 38.4998 237.053 22.2998 242.053L22.3998 236.353C27.9998 235.053 36.4998 235.553 40.8998 245.353C44.5998 253.553 44.4998 264.753 44.4998 270.153C44.4998 275.553 44.3998 285.253 40.8998 293.053C36.4998 302.853 27.9998 303.353 22.3998 302.053L22.2998 296.353C37.7998 301.053 36.6998 274.053 36.6998 270.053Z" fill="white"/>
<path d="M110.7 202.653L100.7 125.553L92.9002 124.853L78.2002 202.653H84.6002L95.1002 140.253L95.8002 140.153L102.7 202.653H110.7Z" fill="white"/>
<path d="M195.6 21.0535L194 65.6535L175.5 52.4535L176.3 21.0535L168.6 20.9535L166.6 97.3535H174.2L175.1 61.0535L193.4 74.3535L192.5 97.3535H200.2L203.1 21.1535L195.6 21.0535Z" fill="white"/>
<path d="M120.8 229.954L119.2 274.654L100.8 261.454L101.5 229.954L93.7998 229.854L91.7998 306.254H99.3998L100.4 269.954L118.6 283.254L117.7 306.254H125.4L128.3 230.054L120.8 229.954Z" fill="white"/>
<path d="M290.3 126.853L288.7 171.453L270.3 158.253L271 126.753H263.4L261.3 203.053H268.9L269.9 166.753L288.2 180.053L287.3 203.153H294.9L297.9 126.953L290.3 126.853Z" fill="white"/>
<path d="M394.5 21.1534L373.1 80.0534L375.4 21.1534H368L365.3 96.8534H373L395.1 34.6534L393.5 96.8534H400.9L402 21.1534H394.5Z" fill="white"/>
<path d="M390 6.35342C389.8 9.75342 389.2 13.0534 385.4 13.0534C380.9 13.0534 380.2 9.85342 380.1 6.25342L375.1 6.85342C375.6 13.7534 378.4 18.4534 385.4 18.4534C393.4 18.4534 395 12.3534 395.3 6.95341L390 6.35342Z" fill="white"/>
<path d="M380.099 126.854L358.699 185.754L361.099 126.854H353.599L350.899 202.554H358.699L380.699 140.254L379.199 202.454L386.499 202.554L387.599 126.854H380.099Z" fill="white"/>
<path d="M375.7 112.053C375.5 115.453 374.9 118.753 371.1 118.753C366.6 118.753 365.9 115.553 365.8 111.953L360.8 112.553C361.3 119.453 364.1 124.153 371.1 124.153C379.1 124.153 380.7 118.053 381 112.653L375.7 112.053Z" fill="white"/>
<path d="M134.3 307.154L153.4 231.454L160.4 231.954C160.4 231.954 173 307.154 172.9 307.154H165.4C165.4 307.154 155.2 245.554 155.2 245.654H154.7C154.7 245.654 146.3 289.354 140.2 307.154H134.3Z" fill="white"/>
<path d="M170 299.854L169.1 307.154H137.1V299.854H170Z" fill="white"/>
</svg>
