<svg width="394" height="315" viewBox="0 0 394 315" fill="none" xmlns="http://www.w3.org/2000/svg">
<path d="M29.0124 134.233L36.5342 133.159C36.5342 133.159 39.3997 112.04 24.356 112.04C9.3124 112.756 4.29785 133.159 4.29785 154.636C4.29785 176.114 6.08876 196.517 22.2069 196.159C38.3251 195.443 34.7433 175.04 34.7433 175.04L27.2215 175.398C27.2215 175.398 30.8033 187.926 23.2815 187.926C14.6851 187.926 11.8197 176.83 12.8942 154.994C13.6106 132.443 14.6851 119.915 25.0724 119.915C30.0869 120.273 29.0124 134.233 29.0124 134.233Z" fill="white"/>
<path d="M170.136 85.9091H161.897L163.688 5.36932H171.927L170.136 85.9091Z" fill="white"/>
<path d="M234.608 86.267H226.37L229.952 6.44318H238.19L234.608 86.267Z" fill="white"/>
<path d="M294.425 305.693H286.545L289.769 225.511H298.007L294.425 305.693Z" fill="white"/>
<path d="M77.0088 64.4318C73.0688 53.3352 63.0397 53.3352 56.9506 55.125L57.667 38.3011C79.5161 36.1534 81.307 5.01136 81.307 5.01136H73.0688C73.0688 28.6364 61.607 32.2159 58.0252 32.2159L58.7415 5.01136H50.5034L47.9961 85.9091H56.2343L56.9506 61.5682C74.1434 55.8409 72.3525 85.9091 72.3525 85.9091H80.5906C80.9488 85.9091 81.307 78.392 77.0088 64.4318Z" fill="white"/>
<path d="M266.129 306.051H258.607L261.115 226.227H267.92L266.129 306.051Z" fill="white"/>
<path d="M246.787 226.227L280.456 225.511V231.239L246.787 231.955V226.227Z" fill="white"/>
<path d="M137.9 195.801H130.378L132.527 116.335H140.049L137.9 195.801Z" fill="white"/>
<path d="M118.916 115.619L152.943 115.261V121.347L118.916 122.062V115.619Z" fill="white"/>
<path d="M340.989 262.381C340.989 257.369 340.989 253.074 340.272 249.852V249.136C340.272 248.42 340.272 248.063 340.272 248.063C339.198 233.744 335.616 225.153 323.438 225.153C312.334 225.153 308.036 233.386 306.603 248.063C305.887 253.074 305.887 256.653 305.887 262.381V264.17C305.887 265.244 305.887 267.034 305.887 268.108C305.887 273.119 305.887 277.415 306.603 280.636V281.352C306.603 282.068 306.603 282.426 306.603 282.426C307.678 296.744 311.259 305.335 323.438 305.335C334.541 305.335 338.839 297.102 340.272 282.426C340.989 277.415 340.989 273.835 340.989 268.108V266.318C340.989 265.244 340.989 263.455 340.989 262.381ZM323.796 298.176C316.99 298.176 315.558 288.869 315.199 283.142C315.199 283.142 314.483 273.835 314.483 264.886C314.483 256.295 315.199 248.063 315.199 247.705C315.916 240.188 316.99 232.67 323.796 232.67C330.601 232.67 332.034 241.977 332.392 247.705C332.392 247.705 333.109 256.295 333.109 264.886C333.109 273.477 332.392 282.784 332.392 282.784C332.034 290.659 330.601 298.176 323.796 298.176Z" fill="white"/>
<path d="M289.769 5.72727L314.483 71.233L312.334 5.72727H317.349L320.214 85.9091H312.334L287.62 18.9716L288.694 85.9091H282.963L281.889 5.72727H289.769Z" fill="white"/>
<path d="M188.045 5.72727L212.759 71.233L210.252 5.72727H215.625L218.49 85.9091H210.252L185.538 18.9716L186.612 85.9091H180.881L179.807 5.72727H188.045Z" fill="white"/>
<path d="M208.82 263.097C208.103 243.051 203.089 224.438 187.687 225.153L188.403 229.807C196.641 230.523 200.94 244.841 201.656 262.739C202.372 282.784 199.507 297.102 190.194 299.608C188.045 300.324 183.389 300.324 183.389 300.324V306.051C186.254 306.051 191.627 306.051 191.985 306.051C206.312 303.188 209.178 283.142 208.82 263.097Z" fill="white"/>
<path d="M182.314 305.693H174.076L175.867 227.301L183.747 225.511L182.314 305.693Z" fill="white"/>
<path d="M175.867 231.239V226.585C175.867 226.585 181.598 225.511 186.971 224.795C191.985 224.08 187.687 229.449 187.687 229.449C181.598 230.165 175.867 231.239 175.867 231.239Z" fill="white"/>
<path d="M12.536 306.051H4.29785L6.08876 226.585H13.6106L12.536 306.051Z" fill="white"/>
<path d="M6.08887 226.227L32.5943 226.585L31.878 232.313H6.08887V226.227Z" fill="white"/>
<path d="M6.08887 267.034L30.087 266.318L30.8034 272.761H6.08887V267.034Z" fill="white"/>
<path d="M54.8017 170.744C54.8017 168.955 54.8017 165.733 54.8017 156.426C54.8017 131.727 54.8017 115.619 54.8017 115.619H46.5635C46.5635 115.619 46.5635 132.801 46.5635 157.142C46.5635 163.943 46.5635 168.239 46.5635 171.102C46.5635 182.557 48.3544 196.517 63.398 196.517C77.3671 196.517 80.2326 186.852 80.2326 171.102C80.2326 166.091 80.2326 162.869 80.2326 156.784V115.619H71.9944V156.426C71.9944 165.733 71.9944 166.807 71.9944 170.744C71.9944 178.261 72.7108 189.716 63.398 189.716C54.8017 190.074 54.8017 174.324 54.8017 170.744Z" fill="white"/>
<path d="M14.6854 61.5682C14.6854 59.7784 14.6854 56.5568 14.6854 47.25C14.6854 22.5511 14.6854 5.36932 14.6854 5.36932H6.44727C6.44727 5.36932 6.44727 23.625 6.44727 47.9659C6.44727 54.767 6.44727 59.0625 6.44727 61.9261C6.44727 73.3807 8.23817 87.3409 23.2818 87.3409C37.2509 87.3409 40.1164 77.6761 40.1164 61.9261C40.1164 56.9148 40.1164 53.6932 40.1164 47.608V5.36932H31.52V47.25C31.52 56.5568 31.52 57.6307 31.52 61.5682C31.52 69.0852 32.2364 80.5398 22.9236 80.5398C13.9691 80.5398 14.6854 65.1477 14.6854 61.5682Z" fill="white"/>
<path d="M91.6942 281.352C91.6942 279.562 91.6942 276.341 91.6942 267.034C91.6942 242.335 91.6942 226.227 91.6942 226.227H83.4561C83.4561 226.227 83.4561 243.409 83.4561 267.75C83.4561 274.551 83.4561 278.847 83.4561 281.71C83.4561 293.165 85.247 307.125 100.291 307.125C114.26 307.125 117.125 297.46 117.125 281.71C117.125 276.699 117.125 273.477 117.125 267.392V226.227H108.887V267.034C108.887 276.341 108.887 277.415 108.887 281.352C108.887 288.869 109.603 300.324 100.291 300.324C91.3361 300.324 91.6942 284.932 91.6942 281.352Z" fill="white"/>
<path d="M168.346 170.744C168.346 168.955 168.346 165.733 168.346 156.426C168.346 131.727 168.346 115.619 168.346 115.619H160.107C160.107 115.619 160.107 132.801 160.107 157.142C160.107 163.943 160.107 168.239 160.107 171.102C160.107 182.557 161.898 196.517 176.942 196.517C190.911 196.517 193.777 186.852 193.777 171.102C193.777 166.091 193.777 162.869 193.777 156.784V115.619H185.538V156.426C185.538 165.733 185.538 166.807 185.538 170.744C185.538 178.261 186.255 189.716 176.942 189.716C167.629 189.716 168.346 174.324 168.346 170.744Z" fill="white"/>
<path d="M94.2012 55.125V61.5682C111.394 56.5568 109.603 86.267 109.603 86.267H117.841C117.841 86.267 118.916 78.0341 114.259 65.1477C109.603 54.0511 99.9321 53.6932 94.2012 55.125Z" fill="white"/>
<path d="M93.4847 85.9091H85.9629L88.4702 5.72727H95.992L93.4847 85.9091Z" fill="white"/>
<path d="M93.485 37.9432C93.485 37.9432 118.2 38.6591 118.2 20.0455C118.2 8.94886 104.947 5.72727 95.6341 5.01136C90.9778 4.29545 88.1123 5.01136 88.1123 5.01136V11.4545H95.6341C95.6341 11.4545 110.678 9.30682 110.678 20.7614C110.678 27.5625 103.872 32.2159 94.2014 32.2159L93.485 37.9432Z" fill="white"/>
<path d="M209.895 165.017V171.46C227.087 166.449 224.938 195.801 224.938 195.801H232.818C232.818 195.801 233.893 188.284 229.236 175.04C225.296 163.943 215.625 163.943 209.895 165.017Z" fill="white"/>
<path d="M208.82 195.085H201.298L204.163 115.619H211.685L208.82 195.085Z" fill="white"/>
<path d="M209.177 148.551C209.177 148.551 233.892 149.267 233.892 130.653C233.892 119.557 220.639 116.335 211.327 115.619C206.67 114.903 203.805 115.619 203.805 115.619V122.062H211.327C211.327 122.062 226.37 119.915 226.37 131.369C226.37 138.17 219.565 142.824 209.536 142.824L209.177 148.551Z" fill="white"/>
<path d="M91.3368 115.619H98.8586L97.0677 195.085H89.5459L91.3368 115.619Z" fill="white"/>
<path d="M122.14 195.085L88.8291 195.801L89.5455 190.074L122.14 189.358V195.085Z" fill="white"/>
<path d="M282.247 115.619H290.485L287.978 195.085H280.456L282.247 115.619Z" fill="white"/>
<path d="M313.409 195.085L280.456 195.801V190.074L313.409 189.358V195.085Z" fill="white"/>
<path d="M129.303 54.0511L147.212 52.2614L147.571 57.9886L128.587 59.4205L129.303 54.0511Z" fill="white"/>
<path d="M155.092 85.9091L144.705 5.36932L136.109 4.65341L120.707 85.9091H127.512L138.974 21.8352H139.691L146.496 85.9091H155.092Z" fill="white"/>
<path d="M222.073 273.835L239.266 272.045L240.34 278.489L221.356 279.205L222.073 273.835Z" fill="white"/>
<path d="M247.862 305.693L236.758 225.511L228.878 225.153L213.118 305.693H220.282L231.744 241.619H232.102L239.265 305.693H247.862Z" fill="white"/>
<path d="M248.936 53.6932L266.845 52.2614L267.203 57.9886L248.22 58.7045L248.936 53.6932Z" fill="white"/>
<path d="M274.725 85.9091L264.337 5.36932L255.741 4.65341L241.056 85.9091H247.145L258.607 21.8352L259.323 21.4773L266.128 85.9091H274.725Z" fill="white"/>
<path d="M246.071 163.943L263.98 162.153L264.338 168.597L245.354 169.313L246.071 163.943Z" fill="white"/>
<path d="M271.86 195.801L261.473 115.619L252.876 115.261L237.475 195.801H244.28L255.742 131.727H256.458L263.264 195.801H271.86Z" fill="white"/>
<path d="M358.898 225.511L383.612 291.017L381.463 225.511H387.194L390.059 305.693H381.463L356.748 239.472L357.823 305.693H352.092L351.018 225.511H358.898Z" fill="white"/>
<path d="M135.393 225.511L160.465 291.017L157.958 225.511H163.689L166.555 305.693H157.958L133.244 239.472L134.318 305.693H128.587L127.513 225.511H135.393Z" fill="white"/>
<path d="M73.7849 263.455C73.7849 258.443 73.7849 254.148 73.0685 250.926V250.21C73.0685 249.494 73.0685 249.136 73.0685 249.136C71.994 234.818 68.4121 226.227 56.234 226.227C45.1303 226.227 40.8321 234.46 39.3994 249.136C39.3994 254.506 39.3994 257.727 39.3994 263.455V265.244C39.3994 266.318 39.3994 268.108 39.3994 269.182C39.3994 274.193 39.3994 278.489 40.1158 281.71V282.426C40.1158 283.142 40.1158 283.5 40.1158 283.5C41.1903 297.818 44.7721 306.409 56.9503 306.409C68.054 306.409 72.3521 298.176 73.7849 283.5C74.5012 278.489 74.5012 274.909 74.5012 269.182V267.392C73.7849 265.96 73.7849 264.528 73.7849 263.455ZM56.5921 298.534C49.7867 298.534 48.354 289.227 47.9958 283.5C47.9958 283.5 47.2794 274.193 47.2794 265.244C47.2794 256.653 47.9958 248.42 47.9958 248.063C48.7121 240.545 49.7867 233.028 56.5921 233.028C63.3976 233.028 64.8303 242.335 65.1885 248.063C65.1885 248.063 65.9049 256.653 65.9049 265.244C65.9049 273.835 65.1885 283.142 65.1885 283.142C64.114 291.733 63.7558 298.534 56.5921 298.534Z" fill="white"/>
</svg>
