<svg width="158" height="157" viewBox="0 0 158 157" fill="none" xmlns="http://www.w3.org/2000/svg">
<circle cx="79" cy="78.5" r="74" stroke="#E6E6E6" stroke-width="9"/>
<path d="M87.3769 75.1152C85.4301 74.41 83.4735 73.8825 81.5581 73.3775V52.2547C86.8076 53.0807 91.7347 56.2009 91.8759 61.8334C91.9188 63.3898 93.1112 64.693 94.7671 64.5835C96.3234 64.5444 97.5536 63.2487 97.5171 61.6949C97.2854 52.4801 89.2807 47.4901 81.5581 46.5456V36.2113C81.5581 34.6549 80.2938 33.3907 78.7375 33.3907C77.1811 33.3907 75.9169 34.6549 75.9169 36.2113V46.5201C69.2571 47.2416 62.4915 50.5985 60.2992 57.3541C58.35 63.3566 60.8432 69.4601 66.9703 73.6771C69.8186 75.6376 72.8684 76.7709 75.9169 77.6736V99.7761C72.566 99.1754 69.5591 97.7563 67.8078 95.7592C66.2539 93.9913 65.3007 91.6077 65.2579 89.3876C65.2264 87.8338 63.9156 86.6426 62.3831 86.6237C60.8268 86.6552 59.5877 87.9408 59.6167 89.5009C59.6847 93.0658 61.1252 96.7049 63.5681 99.4865C66.3862 102.696 70.9129 104.82 75.9133 105.5V115.909C75.9133 117.469 77.1775 118.729 78.7339 118.729C80.2902 118.729 81.5544 117.469 81.5544 115.909L81.5557 105.642C81.6514 105.634 81.7471 105.637 81.8428 105.629C87.9498 105.019 92.8795 102.185 95.3791 97.8493C98.2727 92.8176 99.0623 84.8633 95.3652 80.2633C93.0747 77.4163 89.7102 75.9631 87.377 75.1143L87.3769 75.1152ZM70.1661 69.0282C68.2672 67.7224 64.0262 64.1349 65.6619 59.0946C67.0105 54.9391 71.3823 52.791 75.9143 52.193V71.7569C73.8719 71.0681 71.929 70.2409 70.1661 69.0283V69.0282ZM90.4882 95.0344C88.9457 97.7164 85.6932 99.4996 81.5555 99.9754V79.2239C82.8839 79.5878 84.1897 79.9656 85.454 80.4227C88.15 81.4011 89.9015 82.4726 90.9679 83.7961C92.9649 86.2792 92.3605 91.7769 90.4881 95.0343L90.4882 95.0344Z" fill="#E6E6E6"/>
</svg>
