<svg width="201" height="201" viewBox="0 0 201 201" fill="none" xmlns="http://www.w3.org/2000/svg">
<path fill-rule="evenodd" clip-rule="evenodd" d="M144.72 183.249V196.978C144.72 198.457 145.532 199.815 146.832 200.517C148.135 201.216 149.714 201.148 150.95 200.334C150.95 200.334 178.244 182.32 184.935 175.719C193.735 167.038 201 154.992 201 140.696C201 116.292 181.185 96.4758 156.779 96.4758C132.375 96.4758 112.56 116.29 112.56 140.696C112.56 160.922 126.168 177.991 144.718 183.247L144.72 183.249ZM32.1615 183.249V196.978C32.1615 198.457 32.9713 199.815 34.2735 200.517C35.5739 201.216 37.1556 201.148 38.3911 200.334C38.3911 200.334 65.6831 182.32 72.3749 175.719C81.1762 167.038 88.4414 154.992 88.4414 140.696C88.4414 116.292 68.6271 96.4758 44.2208 96.4758C19.8165 96.4758 0.000244141 116.29 0.000244141 140.696C0.000244141 160.922 13.6105 177.991 32.1602 183.247L32.1615 183.249ZM152.764 180.093C152.764 178.181 151.418 176.534 149.544 176.152C133.037 172.797 120.601 158.188 120.601 140.698C120.601 120.731 136.814 104.518 156.782 104.518C176.751 104.518 192.962 120.731 192.962 140.698C192.962 152.693 186.674 162.711 179.291 169.998C174.85 174.379 160.959 183.949 152.761 189.47C152.763 189.47 152.763 180.094 152.763 180.094L152.764 180.093ZM40.2047 180.093C40.2047 178.181 38.8574 176.534 36.9834 176.152C20.4805 172.797 8.04263 158.188 8.04263 140.698C8.04263 120.731 24.2551 104.518 44.2228 104.518C64.1905 104.518 80.4029 120.731 80.4029 140.698C80.4029 152.693 74.1157 162.711 66.7318 169.998C62.2913 174.379 48.3981 183.949 40.2026 189.47C40.2044 189.47 40.2044 180.094 40.2044 180.094L40.2047 180.093ZM156.781 128.343C151.371 123.953 143.401 124.277 138.366 129.31C132.987 134.688 132.987 143.421 138.366 148.797L147.035 157.467C152.417 162.849 161.143 162.849 166.523 157.467L175.195 148.797C180.573 143.419 180.573 134.686 175.195 129.31C170.161 124.278 162.189 123.953 156.778 128.343H156.781ZM47.2229 128.64H42.7427L43.4119 125.879C43.9367 123.722 42.611 121.547 40.454 121.024C38.2986 120.499 36.1217 121.824 35.5985 123.981L34.4676 128.64H32.159C29.9406 128.64 28.1406 130.442 28.1406 132.659C28.1406 134.877 29.9406 136.681 32.159 136.681H32.5161L30.5646 144.719H28.1388C25.9203 144.719 24.1167 146.521 24.1167 148.741C24.1167 150.958 25.9185 152.76 28.1388 152.76H28.6113L27.8664 155.831C27.3434 157.987 28.669 160.163 30.8243 160.687C32.9814 161.21 35.1565 159.884 35.6798 157.729L36.8864 152.76H41.3665L40.6216 155.831C40.0986 157.987 41.4242 160.164 43.5795 160.687C45.7348 161.21 47.9118 159.884 48.435 157.729L49.6416 152.76H52.2605C54.4771 152.76 56.2789 150.958 56.2789 148.741C56.2789 146.523 54.4771 144.719 52.2605 144.719H51.5931L53.5447 136.681H56.2807C58.4992 136.681 60.2992 134.879 60.2992 132.659C60.2992 130.442 58.4992 128.64 56.2807 128.64H55.498L56.1671 125.879C56.6902 123.722 55.3645 121.547 53.2092 121.023C51.0539 120.499 48.877 121.824 48.3537 123.981L47.2229 128.64ZM152.223 135.047L153.897 136.724C155.326 138.153 156.779 137.942 156.779 137.942C156.779 137.942 158.235 138.153 159.661 136.724L161.391 134.994C163.631 132.754 167.269 132.754 169.509 134.994C171.749 137.235 171.749 140.874 169.509 143.114L160.839 151.784C158.597 154.026 154.963 154.026 152.721 151.784L144.05 143.114C141.81 140.874 141.81 137.235 144.05 134.994C146.29 132.754 149.929 132.754 152.17 134.994L152.223 135.047ZM40.7911 136.681L38.8377 144.719H43.3197L45.2712 136.681H40.7911ZM88.4409 86.7732V100.502C88.4409 101.981 89.2507 103.339 90.5529 104.041C91.8533 104.741 93.4333 104.672 94.6687 103.859C94.6687 103.859 121.963 85.844 128.654 79.2432C137.455 70.5624 144.719 58.516 144.719 44.2206C144.719 19.8162 124.906 0 100.499 0C76.095 0 56.2788 19.8144 56.2788 44.2206C56.2788 64.4464 69.889 81.5154 88.4387 86.7712L88.4409 86.7732ZM96.4795 83.6169C96.4795 81.7051 95.134 80.0584 93.26 79.676C76.7534 76.3213 64.3192 61.7122 64.3192 44.2226C64.3192 24.2549 80.5299 8.04245 100.499 8.04245C120.467 8.04245 136.68 24.2549 136.68 44.2226C136.68 56.2168 130.392 66.2357 123.008 73.5222C118.566 77.9031 104.675 87.4731 96.4773 92.9939C96.4791 92.9939 96.4791 83.6187 96.4791 83.6187L96.4795 83.6169ZM84.4188 64.3238H108.538C110.757 64.3238 112.56 62.522 112.56 60.3018C112.56 58.0851 110.759 56.2834 108.538 56.2834H84.4188C82.2022 56.2834 80.4004 58.0851 80.4004 60.3018C80.4004 62.5202 82.2022 64.3238 84.4188 64.3238ZM84.4188 48.2429H116.579C118.797 48.2429 120.597 46.4429 120.597 44.2245C120.597 42.0061 118.797 40.2061 116.579 40.2061H84.4188C82.2022 40.2061 80.4004 42.0061 80.4004 44.2245C80.4004 46.4429 82.2022 48.2429 84.4188 48.2429ZM84.4188 32.1639H116.579C118.797 32.1639 120.597 30.3621 120.597 28.1455C120.597 25.927 118.797 24.1234 116.579 24.1234H84.4188C82.2022 24.1234 80.4004 25.9252 80.4004 28.1455C80.4004 30.3621 82.2022 32.1639 84.4188 32.1639Z" fill="#E6E6E6"/>
</svg>
