<svg width="213" height="139" viewBox="0 0 213 139" fill="none" xmlns="http://www.w3.org/2000/svg">
<path fill-rule="evenodd" clip-rule="evenodd" d="M139.284 120.051C141.427 130.584 150.749 138.521 161.91 138.521C173.07 138.521 182.392 130.584 184.535 120.051H198.848C206.499 120.051 212.7 113.85 212.7 106.199V73.6187C212.7 70.0366 211.865 66.4995 210.262 63.2945L198.848 40.4663C194.938 32.645 186.945 27.7042 178.2 27.7042H129.587V18.47C129.587 8.26969 121.317 0 111.118 0H18.7684C8.56935 0 0.300049 8.26969 0.300049 18.47V101.582C0.300049 111.782 8.56974 120.051 18.7684 120.051H28.4649C30.6077 130.584 39.9301 138.521 51.0905 138.521C62.2509 138.521 71.5734 130.584 73.7161 120.051H139.284ZM51.0937 101.582C58.7401 101.582 64.9458 107.788 64.9458 115.435C64.9458 123.081 58.7401 129.287 51.0937 129.287C43.4474 129.287 37.2416 123.081 37.2416 115.435C37.2416 107.788 43.4474 101.582 51.0937 101.582ZM161.91 101.582C169.557 101.582 175.762 107.788 175.762 115.435C175.762 123.081 169.557 129.287 161.91 129.287C154.264 129.287 148.058 123.081 148.058 115.435C148.058 107.788 154.264 101.582 161.91 101.582ZM129.588 36.9368V110.816H139.285C141.428 100.283 150.75 92.3459 161.91 92.3459C173.071 92.3459 182.393 100.283 184.536 110.816H198.849C201.398 110.816 203.467 108.747 203.467 106.198V101.582H189.615C187.065 101.582 184.997 99.5131 184.997 96.9638C184.997 94.4144 187.065 92.3459 189.615 92.3459H203.467V83.1117H152.677C145.026 83.1117 138.825 76.9107 138.825 69.2596V60.0254C138.825 52.3743 145.026 46.1733 152.677 46.1733H191.379L190.589 44.5933C188.244 39.9026 183.447 36.9375 178.201 36.9375L129.588 36.9368ZM73.7209 110.816H120.355V18.47C120.355 13.3665 116.223 9.23419 111.121 9.23419H18.7709C13.669 9.23419 9.5367 13.3665 9.5367 18.47V101.582C9.5367 106.684 13.669 110.817 18.7709 110.817H28.4673C30.6101 100.284 39.9325 92.3467 51.0929 92.3467C62.2534 92.3467 71.5758 100.284 73.7185 110.817L73.7209 110.816ZM195.999 55.4075H152.678C150.128 55.4075 148.06 57.4761 148.06 60.0254V69.2596C148.06 71.809 150.128 73.8775 152.678 73.8775H203.467V73.6178C203.467 71.4719 202.968 69.3478 202.003 67.4259L195.999 55.4075Z" fill="#E6E6E6"/>
</svg>
